ISO-10303-21;
HEADER;
FILE_DESCRIPTION(('Synthetic test rafters'),'2;1');
FILE_NAME('example.ifc','2026-09-30T00:00:00',('Test'),('Test'),'Test','Test','');
FILE_SCHEMA(('IFC2X3'));
ENDSEC;
DATA;
#1=IFCCARTESIANPOINT((0.,0.,0.));
#2=IFCDIRECTION((0.,0.,1.));
#3=IFCDIRECTION((1.,0.,0.));
#4=IFCAXIS2PLACEMENT3D(#1,#2,#3);
#5=IFCGEOMETRICREPRESENTATIONCONTEXT($,'Model',3,1.E-5,#4,$);
#6=IFCSIUNIT(*,.LENGTHUNIT.,$,.METRE.);
#7=IFCUNITASSIGNMENT((#6));
#8=IFCPROJECT('0000000000000000000001',$,'Synthetic rafter test',$,$,$,$,(#5),#7);
#9=IFCCARTESIANPOINT((0.000000,0.000000,0.000000));
#10=IFCDIRECTION((0.906183140,0.,0.422885465));
#11=IFCDIRECTION((0.,1.,0.));
#12=IFCAXIS2PLACEMENT3D(#9,#10,#11);
#13=IFCLOCALPLACEMENT($,#12);
#14=IFCRECTANGLEPROFILEDEF(.AREA.,'Rafter section',$,0.09,0.04);
#15=IFCEXTRUDEDAREASOLID(#14,#4,#2,6.621178143);
#16=IFCSHAPEREPRESENTATION(#5,'Body','SweptSolid',(#15));
#17=IFCPRODUCTDEFINITIONSHAPE($,$,(#16));
#18=IFCBEAM('0000000000000000000002',$,'Rafter 0-0',$,$,#13,#17,$);
#19=IFCCARTESIANPOINT((12.000000,0.000000,0.000000));
#20=IFCDIRECTION((-0.906183140,0.,0.422885465));
#21=IFCDIRECTION((0.,1.,0.));
#22=IFCAXIS2PLACEMENT3D(#19,#20,#21);
#23=IFCLOCALPLACEMENT($,#22);
#24=IFCRECTANGLEPROFILEDEF(.AREA.,'Rafter section',$,0.09,0.04);
#25=IFCEXTRUDEDAREASOLID(#24,#4,#2,6.621178143);
#26=IFCSHAPEREPRESENTATION(#5,'Body','SweptSolid',(#25));
#27=IFCPRODUCTDEFINITIONSHAPE($,$,(#26));
#28=IFCBEAM('0000000000000000000003',$,'Rafter 0-1',$,$,#23,#27,$);
#29=IFCCARTESIANPOINT((0.000000,0.600000,0.000000));
#30=IFCDIRECTION((0.906183140,0.,0.422885465));
#31=IFCDIRECTION((0.,1.,0.));
#32=IFCAXIS2PLACEMENT3D(#29,#30,#31);
#33=IFCLOCALPLACEMENT($,#32);
#34=IFCRECTANGLEPROFILEDEF(.AREA.,'Rafter section',$,0.09,0.04);
#35=IFCEXTRUDEDAREASOLID(#34,#4,#2,6.621178143);
#36=IFCSHAPEREPRESENTATION(#5,'Body','SweptSolid',(#35));
#37=IFCPRODUCTDEFINITIONSHAPE($,$,(#36));
#38=IFCBEAM('0000000000000000000012',$,'Rafter 1-0',$,$,#33,#37,$);
#39=IFCCARTESIANPOINT((12.000000,0.600000,0.000000));
#40=IFCDIRECTION((-0.906183140,0.,0.422885465));
#41=IFCDIRECTION((0.,1.,0.));
#42=IFCAXIS2PLACEMENT3D(#39,#40,#41);
#43=IFCLOCALPLACEMENT($,#42);
#44=IFCRECTANGLEPROFILEDEF(.AREA.,'Rafter section',$,0.09,0.04);
#45=IFCEXTRUDEDAREASOLID(#44,#4,#2,6.621178143);
#46=IFCSHAPEREPRESENTATION(#5,'Body','SweptSolid',(#45));
#47=IFCPRODUCTDEFINITIONSHAPE($,$,(#46));
#48=IFCBEAM('0000000000000000000013',$,'Rafter 1-1',$,$,#43,#47,$);
ENDSEC;
END-ISO-10303-21;
