# FILE NW 6th St.obj
mtllib NW 6th St.mtl
trace_obj NW 6th St.obj
shadow_obj NW 6th St.obj

g ROOF  Glass_-_Clear_Fast

usemtl Glass_-_Clear_Fast

v -5339.83 2769.87 1.2899e-08
v -5339.83 3069.87 9.15079e-09
v -5189.83 2919.87 69.9461
v -4979.83 2769.87 9.15079e-09
v -5129.83 2919.87 69.9461
v -4979.83 3069.87 9.15079e-09
v -5189.83 2919.87 69.9461
v -5129.83 2919.87 69.9461
v -4979.83 2769.87 9.15079e-09
v -5339.83 2769.87 1.2899e-08
v -5339.83 2769.87 0.0689611
v -5339.83 3069.87 0.0689611
v -5339.83 3069.87 9.15079e-09
v -5339.83 2769.87 1.2899e-08
v -5339.83 3069.87 9.15079e-09
v -4979.83 3069.87 9.15079e-09
v -5129.83 2919.87 69.9461
v -5189.83 2919.87 69.9461
v -4979.83 2769.87 9.15079e-09
v -4979.83 3069.87 9.15079e-09
v -4979.83 3069.87 0.0689611
v -4979.83 2769.87 0.0689611
v -5339.83 2769.87 1.2899e-08
v -4979.83 2769.87 9.15079e-09
v -4979.83 2769.87 0.0689611
v -5339.83 2769.87 0.0689611
v -5339.83 2769.87 0.0689611
v -5189.83 2919.87 70.0151
v -5339.83 3069.87 0.0689611
v -5339.83 3069.87 0.0689611
v -4979.83 3069.87 0.0689611
v -4979.83 3069.87 9.15079e-09
v -5339.83 3069.87 9.15079e-09
v -4979.83 2769.87 0.0689611
v -4979.83 3069.87 0.0689611
v -5129.83 2919.87 70.0151
v -5339.83 2769.87 0.0689611
v -4979.83 2769.87 0.0689611
v -5129.83 2919.87 70.0151
v -5189.83 2919.87 70.0151
v -5189.83 2919.87 70.0151
v -5129.83 2919.87 70.0151
v -4979.83 3069.87 0.0689611
v -5339.83 3069.87 0.0689611
# vertex indices from 1 to 44

s off
vt 7.62376 0.00340441
vt 0.00375635 0.00340441
vt 3.81376 4.20727
# texture vertex indices from 1 to 3

f  1/1 2/2 3/3
vt 0.00375635 0.0034044
vt 3.81376 4.20727
vt 7.62376 0.0034044
# texture vertex indices from 4 to 6

f  4/4 5/5 6/6
vt 3.81376 4.20727
vt 5.33776 4.20727
vt 9.14776 0.00340441
vt 0.00375635 0.00340441
# texture vertex indices from 7 to 10

f  3/7 5/8 4/9 1/10
vt 7.62376 1.05059e-15
vt 0.00375635 -6.56018e-11
vt 0.00375635 -0.0015875
vt 7.62376 -0.0015875
# texture vertex indices from 11 to 14

f  11/11 12/12 2/13 1/14
vt 9.14776 0.0034044
vt 0.00375635 0.00340441
vt 3.81376 4.20727
vt 5.33776 4.20727
# texture vertex indices from 15 to 18

f  2/15 6/16 5/17 3/18
vt 0.00375635 -0.0015875
vt 7.62376 -0.0015875
vt 7.62376 -2.28333e-16
vt 0.00375635 -2.28333e-16
# texture vertex indices from 19 to 22

f  4/19 6/20 21/21 22/22
vt 0.00375635 -0.0015875
vt 9.14776 -0.0015875
vt 9.14776 -2.2508e-16
vt 0.00375635 1.0829e-15
# texture vertex indices from 23 to 26

f  1/23 4/24 22/25 11/26
vt 7.62376 0.00414467
vt 3.81376 4.20801
vt 0.00375635 0.00414467
# texture vertex indices from 27 to 29

f  11/27 28/28 12/29
vt 9.14776 -8.05562e-16
vt 0.00375635 6.56008e-11
vt 0.00375635 -0.0015875
vt 9.14776 -0.0015875
# texture vertex indices from 30 to 33

f  12/30 21/31 6/32 2/33
vt 0.00375635 0.00414467
vt 7.62376 0.00414467
vt 3.81376 4.20801
# texture vertex indices from 34 to 36

f  22/34 21/35 36/36
vt 0.00375635 0.00414467
vt 9.14776 0.00414467
vt 5.33776 4.20801
vt 3.81376 4.20801
# texture vertex indices from 37 to 40

f  11/37 22/38 36/39 28/40
vt 5.33776 4.20801
vt 3.81376 4.20801
vt 0.00375635 0.00414467
vt 9.14776 0.00414467
# texture vertex indices from 41 to 44

f  28/41 36/42 21/43 12/44

g BEAM  Paint_-_Light_Gray

usemtl Paint_-_Light_Gray

v -5160.58 3069.87 0
v -5160.58 2919.87 69.9461
v -5159.08 2919.87 69.9461
v -5159.08 3069.87 0
v -5159.08 3069.87 0
v -5159.08 3069.87 -6.06858
v -5160.58 3069.87 -6.06858
v -5160.58 3069.87 0
v -5160.58 3069.87 -6.06858
v -5160.58 2919.87 63.8776
v -5160.58 2919.87 69.9461
v -5160.58 3069.87 0
v -5160.58 2919.87 63.8776
v -5159.08 2919.87 63.8776
v -5159.08 2919.87 69.9461
v -5160.58 2919.87 69.9461
v -5159.08 3069.87 0
v -5159.08 2919.87 69.9461
v -5159.08 2919.87 63.8776
v -5159.08 3069.87 -6.06858
v -5159.08 3069.87 -6.06858
v -5159.08 2919.87 63.8776
v -5160.58 2919.87 63.8776
v -5160.58 3069.87 -6.06858
# vertex indices from 45 to 68

s off
vt -70.6691 131.079
vt -66.4653 131.079
vt -66.4653 131.041
vt -70.6691 131.041
# texture vertex indices from 45 to 48

f  45/45 46/46 47/47 48/48
vt 131.041 32.9536
vt 131.041 32.8139
vt 131.079 32.8139
vt 131.079 32.9536
# texture vertex indices from 49 to 52

f  48/49 50/50 51/51 45/52
vt -70.7343 32.8139
vt -66.5304 32.8139
vt -66.4653 32.9536
vt -70.6691 32.9536
# texture vertex indices from 53 to 56

f  51/53 54/54 46/55 45/56
vt 131.079 32.8139
vt 131.041 32.8139
vt 131.041 32.9536
vt 131.079 32.9536
# texture vertex indices from 57 to 60

f  54/57 58/58 47/59 46/60
vt -70.6691 32.9536
vt -66.4653 32.9536
vt -66.5304 32.8139
vt -70.7343 32.8139
# texture vertex indices from 61 to 64

f  48/61 47/62 58/63 50/64
vt -70.7343 131.041
vt -66.5304 131.041
vt -66.5304 131.079
vt -70.7343 131.079
# texture vertex indices from 65 to 68

f  50/65 58/66 54/67 51/68

g BEAM  Paint_-_Light_Gray

usemtl Paint_-_Light_Gray

v -5160.58 2769.87 -6.06858
v -5160.58 2919.87 63.8776
v -5159.08 2919.87 63.8776
v -5159.08 2769.87 -6.06858
v -5159.08 2769.87 -6.06858
v -5159.08 2769.87 0
v -5160.58 2769.87 0
v -5160.58 2769.87 -6.06858
v -5160.58 2769.87 0
v -5160.58 2919.87 69.9461
v -5160.58 2919.87 63.8776
v -5160.58 2769.87 -6.06858
v -5160.58 2919.87 69.9461
v -5159.08 2919.87 69.9461
v -5159.08 2919.87 63.8776
v -5160.58 2919.87 63.8776
v -5159.08 2769.87 -6.06858
v -5159.08 2919.87 63.8776
v -5159.08 2919.87 69.9461
v -5159.08 2769.87 0
v -5159.08 2769.87 0
v -5159.08 2919.87 69.9461
v -5160.58 2919.87 69.9461
v -5160.58 2769.87 0
# vertex indices from 69 to 92

s off
vt 63.6979 -131.079
vt 67.9018 -131.079
vt 67.9018 -131.041
vt 63.6979 -131.041
# texture vertex indices from 69 to 72

f  69/69 70/70 71/71 72/72
vt -131.041 -29.8729
vt -131.041 -29.7332
vt -131.079 -29.7332
vt -131.079 -29.8729
# texture vertex indices from 73 to 76

f  72/73 74/74 75/75 69/76
vt 63.7631 -29.7332
vt 67.9669 -29.7332
vt 67.9018 -29.8729
vt 63.6979 -29.8729
# texture vertex indices from 77 to 80

f  75/77 78/78 70/79 69/80
vt -131.079 -29.7332
vt -131.041 -29.7332
vt -131.041 -29.8729
vt -131.079 -29.8729
# texture vertex indices from 81 to 84

f  78/81 82/82 71/83 70/84
vt 63.6979 -29.8729
vt 67.9018 -29.8729
vt 67.9669 -29.7332
vt 63.7631 -29.7332
# texture vertex indices from 85 to 88

f  72/85 71/86 82/87 74/88
vt 63.7631 -131.041
vt 67.9669 -131.041
vt 67.9669 -131.079
vt 63.7631 -131.079
# texture vertex indices from 89 to 92

f  74/89 82/90 78/91 75/92

g BEAM  Paint_-_Light_Gray

usemtl Paint_-_Light_Gray

v -5184.58 3069.87 0
v -5184.58 2919.87 69.9461
v -5183.08 2919.87 69.9461
v -5183.08 3069.87 0
v -5183.08 3069.87 0
v -5183.08 3069.87 -6.06858
v -5184.58 3069.87 -6.06858
v -5184.58 3069.87 0
v -5184.58 3069.87 -6.06858
v -5184.58 2919.87 63.8776
v -5184.58 2919.87 69.9461
v -5184.58 3069.87 0
v -5184.58 2919.87 63.8776
v -5183.08 2919.87 63.8776
v -5183.08 2919.87 69.9461
v -5184.58 2919.87 69.9461
v -5183.08 3069.87 0
v -5183.08 2919.87 69.9461
v -5183.08 2919.87 63.8776
v -5183.08 3069.87 -6.06858
v -5183.08 3069.87 -6.06858
v -5183.08 2919.87 63.8776
v -5184.58 2919.87 63.8776
v -5184.58 3069.87 -6.06858
# vertex indices from 93 to 116

s off
vt -70.6691 131.688
vt -66.4653 131.688
vt -66.4653 131.65
vt -70.6691 131.65
# texture vertex indices from 93 to 96

f  93/93 94/94 95/95 96/96
vt 131.65 32.9536
vt 131.65 32.8139
vt 131.688 32.8139
vt 131.688 32.9536
# texture vertex indices from 97 to 100

f  96/97 98/98 99/99 93/100
vt -70.7343 32.8139
vt -66.5304 32.8139
vt -66.4653 32.9536
vt -70.6691 32.9536
# texture vertex indices from 101 to 104

f  99/101 102/102 94/103 93/104
vt 131.688 32.8139
vt 131.65 32.8139
vt 131.65 32.9536
vt 131.688 32.9536
# texture vertex indices from 105 to 108

f  102/105 106/106 95/107 94/108
vt -70.6691 32.9536
vt -66.4653 32.9536
vt -66.5304 32.8139
vt -70.7343 32.8139
# texture vertex indices from 109 to 112

f  96/109 95/110 106/111 98/112
vt -70.7343 131.65
vt -66.5304 131.65
vt -66.5304 131.688
vt -70.7343 131.688
# texture vertex indices from 113 to 116

f  98/113 106/114 102/115 99/116

g BEAM  Paint_-_Light_Gray

usemtl Paint_-_Light_Gray

v -5184.58 2769.87 -6.06858
v -5184.58 2919.87 63.8776
v -5183.08 2919.87 63.8776
v -5183.08 2769.87 -6.06858
v -5183.08 2769.87 -6.06858
v -5183.08 2769.87 0
v -5184.58 2769.87 0
v -5184.58 2769.87 -6.06858
v -5184.58 2769.87 0
v -5184.58 2919.87 69.9461
v -5184.58 2919.87 63.8776
v -5184.58 2769.87 -6.06858
v -5184.58 2919.87 69.9461
v -5183.08 2919.87 69.9461
v -5183.08 2919.87 63.8776
v -5184.58 2919.87 63.8776
v -5183.08 2769.87 -6.06858
v -5183.08 2919.87 63.8776
v -5183.08 2919.87 69.9461
v -5183.08 2769.87 0
v -5183.08 2769.87 0
v -5183.08 2919.87 69.9461
v -5184.58 2919.87 69.9461
v -5184.58 2769.87 0
# vertex indices from 117 to 140

s off
vt 63.6979 -131.688
vt 67.9018 -131.688
vt 67.9018 -131.65
vt 63.6979 -131.65
# texture vertex indices from 117 to 120

f  117/117 118/118 119/119 120/120
vt -131.65 -29.8729
vt -131.65 -29.7332
vt -131.688 -29.7332
vt -131.688 -29.8729
# texture vertex indices from 121 to 124

f  120/121 122/122 123/123 117/124
vt 63.7631 -29.7332
vt 67.9669 -29.7332
vt 67.9018 -29.8729
vt 63.6979 -29.8729
# texture vertex indices from 125 to 128

f  123/125 126/126 118/127 117/128
vt -131.688 -29.7332
vt -131.65 -29.7332
vt -131.65 -29.8729
vt -131.688 -29.8729
# texture vertex indices from 129 to 132

f  126/129 130/130 119/131 118/132
vt 63.6979 -29.8729
vt 67.9018 -29.8729
vt 67.9669 -29.7332
vt 63.7631 -29.7332
# texture vertex indices from 133 to 136

f  120/133 119/134 130/135 122/136
vt 63.7631 -131.65
vt 67.9669 -131.65
vt 67.9669 -131.688
vt 63.7631 -131.688
# texture vertex indices from 137 to 140

f  122/137 130/138 126/139 123/140

g BEAM  Paint_-_Light_Gray

usemtl Paint_-_Light_Gray

v -5339.83 2932.62 -6.06858
v -5256.58 2932.62 32.7515
v -5256.58 2931.12 32.7515
v -5339.83 2931.12 -6.06858
v -5339.83 2931.12 -6.06858
v -5339.83 2931.12 0
v -5339.83 2932.62 0
v -5339.83 2932.62 -6.06858
v -5339.83 2932.62 0
v -5256.58 2932.62 38.8201
v -5256.58 2932.62 32.7515
v -5339.83 2932.62 -6.06858
v -5256.58 2932.62 38.8201
v -5256.58 2931.12 38.8201
v -5256.58 2931.12 32.7515
v -5256.58 2932.62 32.7515
v -5339.83 2931.12 -6.06858
v -5256.58 2931.12 32.7515
v -5256.58 2931.12 38.8201
v -5339.83 2931.12 0
v -5339.83 2931.12 0
v -5256.58 2931.12 38.8201
v -5256.58 2932.62 38.8201
v -5339.83 2932.62 0
# vertex indices from 141 to 164

s off
vt -122.989 -74.4886
vt -120.656 -74.4886
vt -120.656 -74.4505
vt -122.989 -74.4505
# texture vertex indices from 141 to 144

f  141/141 142/142 143/143 144/144
vt -74.4505 57.1807
vt -74.4505 57.3204
vt -74.4886 57.3204
vt -74.4886 57.1807
# texture vertex indices from 145 to 148

f  144/145 146/146 147/147 141/148
vt -122.924 57.3204
vt -120.591 57.3204
vt -120.656 57.1807
vt -122.989 57.1807
# texture vertex indices from 149 to 152

f  147/149 150/150 142/151 141/152
vt -74.4886 57.3204
vt -74.4505 57.3204
vt -74.4505 57.1807
vt -74.4886 57.1807
# texture vertex indices from 153 to 156

f  150/153 154/154 143/155 142/156
vt -122.989 57.1807
vt -120.656 57.1807
vt -120.591 57.3204
vt -122.924 57.3204
# texture vertex indices from 157 to 160

f  144/157 143/158 154/159 146/160
vt -122.924 -74.4505
vt -120.591 -74.4505
vt -120.591 -74.4886
vt -122.924 -74.4886
# texture vertex indices from 161 to 164

f  146/161 154/162 150/163 147/164

g BEAM  Paint_-_Light_Gray

usemtl Paint_-_Light_Gray

v -5208.58 3069.87 0
v -5208.58 2937.87 61.5526
v -5207.08 2937.87 61.5526
v -5207.08 3069.87 0
v -5207.08 3069.87 0
v -5207.08 3069.87 -6.06858
v -5208.58 3069.87 -6.06858
v -5208.58 3069.87 0
v -5208.58 3069.87 -6.06858
v -5208.58 2936.65 56.0526
v -5208.58 2937.87 61.5526
v -5208.58 3069.87 0
v -5208.58 2936.65 56.0526
v -5207.08 2936.65 56.0526
v -5207.08 2937.87 61.5526
v -5208.58 2937.87 61.5526
v -5207.08 3069.87 0
v -5207.08 2937.87 61.5526
v -5207.08 2936.65 56.0526
v -5207.08 3069.87 -6.06858
v -5207.08 3069.87 -6.06858
v -5207.08 2936.65 56.0526
v -5208.58 2936.65 56.0526
v -5208.58 3069.87 -6.06858
# vertex indices from 165 to 188

s off
vt -70.6691 132.298
vt -66.9697 132.298
vt -66.9697 132.26
vt -70.6691 132.26
# texture vertex indices from 165 to 168

f  165/165 166/166 167/167 168/168
vt 132.26 32.9536
vt 132.26 32.8139
vt 132.298 32.8139
vt 132.298 32.9536
# texture vertex indices from 169 to 172

f  168/169 170/170 171/171 165/172
vt -70.7343 32.8139
vt -67.0007 32.8139
vt -66.9697 32.9536
vt -70.6691 32.9536
# texture vertex indices from 173 to 176

f  171/173 174/174 166/175 165/176
vt 132.298 32.8139
vt 132.26 32.8139
vt 132.26 32.9536
vt 132.298 32.9536
# texture vertex indices from 177 to 180

f  174/177 178/178 167/179 166/180
vt -70.6691 32.9536
vt -66.9697 32.9536
vt -67.0007 32.8139
vt -70.7343 32.8139
# texture vertex indices from 181 to 184

f  168/181 167/182 178/183 170/184
vt -70.7343 132.26
vt -67.0007 132.26
vt -67.0007 132.298
vt -70.7343 132.298
# texture vertex indices from 185 to 188

f  170/185 178/186 174/187 171/188

g BEAM  Paint_-_Light_Gray

usemtl Paint_-_Light_Gray

v -5208.58 2769.87 -6.06858
v -5208.58 2903.09 56.0526
v -5207.08 2903.09 56.0526
v -5207.08 2769.87 -6.06858
v -5207.08 2769.87 -6.06858
v -5207.08 2769.87 0
v -5208.58 2769.87 0
v -5208.58 2769.87 -6.06858
v -5208.58 2769.87 0
v -5208.58 2901.87 61.5526
v -5208.58 2903.09 56.0526
v -5208.58 2769.87 -6.06858
v -5208.58 2901.87 61.5526
v -5207.08 2901.87 61.5526
v -5207.08 2903.09 56.0526
v -5208.58 2903.09 56.0526
v -5207.08 2769.87 -6.06858
v -5207.08 2903.09 56.0526
v -5207.08 2901.87 61.5526
v -5207.08 2769.87 0
v -5207.08 2769.87 0
v -5207.08 2901.87 61.5526
v -5208.58 2901.87 61.5526
v -5208.58 2769.87 0
# vertex indices from 189 to 212

s off
vt 63.6979 -132.298
vt 67.4315 -132.298
vt 67.4315 -132.26
vt 63.6979 -132.26
# texture vertex indices from 189 to 192

f  189/189 190/190 191/191 192/192
vt -132.26 -29.8729
vt -132.26 -29.7332
vt -132.298 -29.7332
vt -132.298 -29.8729
# texture vertex indices from 193 to 196

f  192/193 194/194 195/195 189/196
vt 63.7631 -29.7332
vt 67.4625 -29.7332
vt 67.4315 -29.8729
vt 63.6979 -29.8729
# texture vertex indices from 197 to 200

f  195/197 198/198 190/199 189/200
vt -132.298 -29.7332
vt -132.26 -29.7332
vt -132.26 -29.8729
vt -132.298 -29.8729
# texture vertex indices from 201 to 204

f  198/201 202/202 191/203 190/204
vt 63.6979 -29.8729
vt 67.4315 -29.8729
vt 67.4625 -29.7332
vt 63.7631 -29.7332
# texture vertex indices from 205 to 208

f  192/205 191/206 202/207 194/208
vt 63.7631 -132.26
vt 67.4625 -132.26
vt 67.4625 -132.298
vt 63.7631 -132.298
# texture vertex indices from 209 to 212

f  194/209 202/210 198/211 195/212

g BEAM  Paint_-_Light_Gray

usemtl Paint_-_Light_Gray

v -5233.33 3069.87 0
v -5233.33 2962.62 50.0115
v -5231.83 2962.62 50.0115
v -5231.83 3069.87 0
v -5231.83 3069.87 0
v -5231.83 3069.87 -6.06858
v -5233.33 3069.87 -6.06858
v -5233.33 3069.87 0
v -5233.33 3069.87 -6.06858
v -5233.33 2961.4 44.5115
v -5233.33 2962.62 50.0115
v -5233.33 3069.87 0
v -5233.33 2961.4 44.5115
v -5231.83 2961.4 44.5115
v -5231.83 2962.62 50.0115
v -5233.33 2962.62 50.0115
v -5231.83 3069.87 0
v -5231.83 2962.62 50.0115
v -5231.83 2961.4 44.5115
v -5231.83 3069.87 -6.06858
v -5231.83 3069.87 -6.06858
v -5231.83 2961.4 44.5115
v -5233.33 2961.4 44.5115
v -5233.33 3069.87 -6.06858
# vertex indices from 213 to 236

s off
vt -70.6691 132.926
vt -67.6634 132.926
vt -67.6634 132.888
vt -70.6691 132.888
# texture vertex indices from 213 to 216

f  213/213 214/214 215/215 216/216
vt 132.888 32.9536
vt 132.888 32.8139
vt 132.926 32.8139
vt 132.926 32.9536
# texture vertex indices from 217 to 220

f  216/217 218/218 219/219 213/220
vt -70.7343 32.8139
vt -67.6943 32.8139
vt -67.6634 32.9536
vt -70.6691 32.9536
# texture vertex indices from 221 to 224

f  219/221 222/222 214/223 213/224
vt 132.926 32.8139
vt 132.888 32.8139
vt 132.888 32.9536
vt 132.926 32.9536
# texture vertex indices from 225 to 228

f  222/225 226/226 215/227 214/228
vt -70.6691 32.9536
vt -67.6634 32.9536
vt -67.6943 32.8139
vt -70.7343 32.8139
# texture vertex indices from 229 to 232

f  216/229 215/230 226/231 218/232
vt -70.7343 132.888
vt -67.6943 132.888
vt -67.6943 132.926
vt -70.7343 132.926
# texture vertex indices from 233 to 236

f  218/233 226/234 222/235 219/236

g BEAM  Paint_-_Light_Gray

usemtl Paint_-_Light_Gray

v -5233.33 2769.87 -6.06858
v -5233.33 2878.34 44.5115
v -5231.83 2878.34 44.5115
v -5231.83 2769.87 -6.06858
v -5231.83 2769.87 -6.06858
v -5231.83 2769.87 0
v -5233.33 2769.87 0
v -5233.33 2769.87 -6.06858
v -5233.33 2769.87 0
v -5233.33 2877.12 50.0115
v -5233.33 2878.34 44.5115
v -5233.33 2769.87 -6.06858
v -5233.33 2877.12 50.0115
v -5231.83 2877.12 50.0115
v -5231.83 2878.34 44.5115
v -5233.33 2878.34 44.5115
v -5231.83 2769.87 -6.06858
v -5231.83 2878.34 44.5115
v -5231.83 2877.12 50.0115
v -5231.83 2769.87 0
v -5231.83 2769.87 0
v -5231.83 2877.12 50.0115
v -5233.33 2877.12 50.0115
v -5233.33 2769.87 0
# vertex indices from 237 to 260

s off
vt 63.6979 -132.926
vt 66.7379 -132.926
vt 66.7379 -132.888
vt 63.6979 -132.888
# texture vertex indices from 237 to 240

f  237/237 238/238 239/239 240/240
vt -132.888 -29.8729
vt -132.888 -29.7332
vt -132.926 -29.7332
vt -132.926 -29.8729
# texture vertex indices from 241 to 244

f  240/241 242/242 243/243 237/244
vt 63.7631 -29.7332
vt 66.7688 -29.7332
vt 66.7379 -29.8729
vt 63.6979 -29.8729
# texture vertex indices from 245 to 248

f  243/245 246/246 238/247 237/248
vt -132.926 -29.7332
vt -132.888 -29.7332
vt -132.888 -29.8729
vt -132.926 -29.8729
# texture vertex indices from 249 to 252

f  246/249 250/250 239/251 238/252
vt 63.6979 -29.8729
vt 66.7379 -29.8729
vt 66.7688 -29.7332
vt 63.7631 -29.7332
# texture vertex indices from 253 to 256

f  240/253 239/254 250/255 242/256
vt 63.7631 -132.888
vt 66.7688 -132.888
vt 66.7688 -132.926
vt 63.7631 -132.926
# texture vertex indices from 257 to 260

f  242/257 250/258 246/259 243/260

g BEAM  Paint_-_Light_Gray

usemtl Paint_-_Light_Gray

v -5256.58 3069.87 0
v -5256.58 2985.87 39.1698
v -5255.08 2985.87 39.1698
v -5255.08 3069.87 0
v -5255.08 3069.87 0
v -5255.08 3069.87 -6.06858
v -5256.58 3069.87 -6.06858
v -5256.58 3069.87 0
v -5256.58 3069.87 -6.06858
v -5256.58 2984.65 33.6698
v -5256.58 2985.87 39.1698
v -5256.58 3069.87 0
v -5256.58 2984.65 33.6698
v -5255.08 2984.65 33.6698
v -5255.08 2985.87 39.1698
v -5256.58 2985.87 39.1698
v -5255.08 3069.87 0
v -5255.08 2985.87 39.1698
v -5255.08 2984.65 33.6698
v -5255.08 3069.87 -6.06858
v -5255.08 3069.87 -6.06858
v -5255.08 2984.65 33.6698
v -5256.58 2984.65 33.6698
v -5256.58 3069.87 -6.06858
# vertex indices from 261 to 284

s off
vt -70.6691 133.517
vt -68.315 133.517
vt -68.315 133.479
vt -70.6691 133.479
# texture vertex indices from 261 to 264

f  261/261 262/262 263/263 264/264
vt 133.479 32.9536
vt 133.479 32.8139
vt 133.517 32.8139
vt 133.517 32.9536
# texture vertex indices from 265 to 268

f  264/265 266/266 267/267 261/268
vt -70.7343 32.8139
vt -68.3459 32.8139
vt -68.315 32.9536
vt -70.6691 32.9536
# texture vertex indices from 269 to 272

f  267/269 270/270 262/271 261/272
vt 133.517 32.8139
vt 133.479 32.8139
vt 133.479 32.9536
vt 133.517 32.9536
# texture vertex indices from 273 to 276

f  270/273 274/274 263/275 262/276
vt -70.6691 32.9536
vt -68.315 32.9536
vt -68.3459 32.8139
vt -70.7343 32.8139
# texture vertex indices from 277 to 280

f  264/277 263/278 274/279 266/280
vt -70.7343 133.479
vt -68.3459 133.479
vt -68.3459 133.517
vt -70.7343 133.517
# texture vertex indices from 281 to 284

f  266/281 274/282 270/283 267/284

g BEAM  Paint_-_Light_Gray

usemtl Paint_-_Light_Gray

v -5256.58 2769.87 -6.06858
v -5256.58 2855.09 33.6698
v -5255.08 2855.09 33.6698
v -5255.08 2769.87 -6.06858
v -5255.08 2769.87 -6.06858
v -5255.08 2769.87 0
v -5256.58 2769.87 0
v -5256.58 2769.87 -6.06858
v -5256.58 2769.87 0
v -5256.58 2853.87 39.1698
v -5256.58 2855.09 33.6698
v -5256.58 2769.87 -6.06858
v -5256.58 2853.87 39.1698
v -5255.08 2853.87 39.1698
v -5255.08 2855.09 33.6698
v -5256.58 2855.09 33.6698
v -5255.08 2769.87 -6.06858
v -5255.08 2855.09 33.6698
v -5255.08 2853.87 39.1698
v -5255.08 2769.87 0
v -5255.08 2769.87 0
v -5255.08 2853.87 39.1698
v -5256.58 2853.87 39.1698
v -5256.58 2769.87 0
# vertex indices from 285 to 308

s off
vt 63.6979 -133.517
vt 66.0863 -133.517
vt 66.0863 -133.479
vt 63.6979 -133.479
# texture vertex indices from 285 to 288

f  285/285 286/286 287/287 288/288
vt -133.479 -29.8729
vt -133.479 -29.7332
vt -133.517 -29.7332
vt -133.517 -29.8729
# texture vertex indices from 289 to 292

f  288/289 290/290 291/291 285/292
vt 63.7631 -29.7332
vt 66.1172 -29.7332
vt 66.0863 -29.8729
vt 63.6979 -29.8729
# texture vertex indices from 293 to 296

f  291/293 294/294 286/295 285/296
vt -133.517 -29.7332
vt -133.479 -29.7332
vt -133.479 -29.8729
vt -133.517 -29.8729
# texture vertex indices from 297 to 300

f  294/297 298/298 287/299 286/300
vt 63.6979 -29.8729
vt 66.0863 -29.8729
vt 66.1172 -29.7332
vt 63.7631 -29.7332
# texture vertex indices from 301 to 304

f  288/301 287/302 298/303 290/304
vt 63.7631 -133.479
vt 66.1172 -133.479
vt 66.1172 -133.517
vt 63.7631 -133.517
# texture vertex indices from 305 to 308

f  290/305 298/306 294/307 291/308

g BEAM  Paint_-_Light_Gray

usemtl Paint_-_Light_Gray

v -5280.58 3069.87 0
v -5280.58 3010.62 27.6287
v -5279.08 3010.62 27.6287
v -5279.08 3069.87 0
v -5279.08 3069.87 0
v -5279.08 3069.87 -6.06858
v -5280.58 3069.87 -6.06858
v -5280.58 3069.87 0
v -5280.58 3069.87 -6.06858
v -5280.58 3010.62 21.5602
v -5280.58 3010.62 27.6287
v -5280.58 3069.87 0
v -5280.58 3010.62 21.5602
v -5279.08 3010.62 21.5602
v -5279.08 3010.62 27.6287
v -5280.58 3010.62 27.6287
v -5279.08 3069.87 0
v -5279.08 3010.62 27.6287
v -5279.08 3010.62 21.5602
v -5279.08 3069.87 -6.06858
v -5279.08 3069.87 -6.06858
v -5279.08 3010.62 21.5602
v -5280.58 3010.62 21.5602
v -5280.58 3069.87 -6.06858
# vertex indices from 309 to 332

s off
vt -70.6691 134.127
vt -69.0086 134.127
vt -69.0086 134.089
vt -70.6691 134.089
# texture vertex indices from 309 to 312

f  309/309 310/310 311/311 312/312
vt 134.089 32.9536
vt 134.089 32.8139
vt 134.127 32.8139
vt 134.127 32.9536
# texture vertex indices from 313 to 316

f  312/313 314/314 315/315 309/316
vt -70.7343 32.8139
vt -69.0737 32.8139
vt -69.0086 32.9536
vt -70.6691 32.9536
# texture vertex indices from 317 to 320

f  315/317 318/318 310/319 309/320
vt 134.127 32.8139
vt 134.089 32.8139
vt 134.089 32.9536
vt 134.127 32.9536
# texture vertex indices from 321 to 324

f  318/321 322/322 311/323 310/324
vt -70.6691 32.9536
vt -69.0086 32.9536
vt -69.0737 32.8139
vt -70.7343 32.8139
# texture vertex indices from 325 to 328

f  312/325 311/326 322/327 314/328
vt -70.7343 134.089
vt -69.0737 134.089
vt -69.0737 134.127
vt -70.7343 134.127
# texture vertex indices from 329 to 332

f  314/329 322/330 318/331 315/332

g BEAM  Paint_-_Light_Gray

usemtl Paint_-_Light_Gray

v -5304.58 3069.87 0
v -5304.58 3034.62 16.4373
v -5303.08 3034.62 16.4373
v -5303.08 3069.87 0
v -5303.08 3069.87 0
v -5303.08 3069.87 -6.06858
v -5304.58 3069.87 -6.06858
v -5304.58 3069.87 0
v -5304.58 3069.87 -6.06858
v -5304.58 3034.62 10.3688
v -5304.58 3034.62 16.4373
v -5304.58 3069.87 0
v -5304.58 3034.62 10.3688
v -5303.08 3034.62 10.3688
v -5303.08 3034.62 16.4373
v -5304.58 3034.62 16.4373
v -5303.08 3069.87 0
v -5303.08 3034.62 16.4373
v -5303.08 3034.62 10.3688
v -5303.08 3069.87 -6.06858
v -5303.08 3069.87 -6.06858
v -5303.08 3034.62 10.3688
v -5304.58 3034.62 10.3688
v -5304.58 3069.87 -6.06858
# vertex indices from 333 to 356

s off
vt -70.6691 134.736
vt -69.6812 134.736
vt -69.6812 134.698
vt -70.6691 134.698
# texture vertex indices from 333 to 336

f  333/333 334/334 335/335 336/336
vt 134.698 32.9536
vt 134.698 32.8139
vt 134.736 32.8139
vt 134.736 32.9536
# texture vertex indices from 337 to 340

f  336/337 338/338 339/339 333/340
vt -70.7343 32.8139
vt -69.7464 32.8139
vt -69.6812 32.9536
vt -70.6691 32.9536
# texture vertex indices from 341 to 344

f  339/341 342/342 334/343 333/344
vt 134.736 32.8139
vt 134.698 32.8139
vt 134.698 32.9536
vt 134.736 32.9536
# texture vertex indices from 345 to 348

f  342/345 346/346 335/347 334/348
vt -70.6691 32.9536
vt -69.6812 32.9536
vt -69.7464 32.8139
vt -70.7343 32.8139
# texture vertex indices from 349 to 352

f  336/349 335/350 346/351 338/352
vt -70.7343 134.698
vt -69.7464 134.698
vt -69.7464 134.736
vt -70.7343 134.736
# texture vertex indices from 353 to 356

f  338/353 346/354 342/355 339/356

g BEAM  Paint_-_Light_Gray

usemtl Paint_-_Light_Gray

v -5339.83 2956.62 -6.06858
v -5256.58 2956.62 32.7515
v -5256.58 2955.12 32.7515
v -5339.83 2955.12 -6.06858
v -5339.83 2955.12 -6.06858
v -5339.83 2955.12 0
v -5339.83 2956.62 0
v -5339.83 2956.62 -6.06858
v -5339.83 2956.62 0
v -5256.58 2956.62 38.8201
v -5256.58 2956.62 32.7515
v -5339.83 2956.62 -6.06858
v -5256.58 2956.62 38.8201
v -5256.58 2955.12 38.8201
v -5256.58 2955.12 32.7515
v -5256.58 2956.62 32.7515
v -5339.83 2955.12 -6.06858
v -5256.58 2955.12 32.7515
v -5256.58 2955.12 38.8201
v -5339.83 2955.12 0
v -5339.83 2955.12 0
v -5256.58 2955.12 38.8201
v -5256.58 2956.62 38.8201
v -5339.83 2956.62 0
# vertex indices from 357 to 380

s off
vt -122.989 -75.0982
vt -120.656 -75.0982
vt -120.656 -75.0601
vt -122.989 -75.0601
# texture vertex indices from 357 to 360

f  357/357 358/358 359/359 360/360
vt -75.0601 57.1807
vt -75.0601 57.3204
vt -75.0982 57.3204
vt -75.0982 57.1807
# texture vertex indices from 361 to 364

f  360/361 362/362 363/363 357/364
vt -122.924 57.3204
vt -120.591 57.3204
vt -120.656 57.1807
vt -122.989 57.1807
# texture vertex indices from 365 to 368

f  363/365 366/366 358/367 357/368
vt -75.0982 57.3204
vt -75.0601 57.3204
vt -75.0601 57.1807
vt -75.0982 57.1807
# texture vertex indices from 369 to 372

f  366/369 370/370 359/371 358/372
vt -122.989 57.1807
vt -120.656 57.1807
vt -120.591 57.3204
vt -122.924 57.3204
# texture vertex indices from 373 to 376

f  360/373 359/374 370/375 362/376
vt -122.924 -75.0601
vt -120.591 -75.0601
vt -120.591 -75.0982
vt -122.924 -75.0982
# texture vertex indices from 377 to 380

f  362/377 370/378 366/379 363/380

g BEAM  Paint_-_Light_Gray

usemtl Paint_-_Light_Gray

v -5339.83 2980.62 -6.06858
v -5256.58 2980.62 32.7515
v -5256.58 2979.12 32.7515
v -5339.83 2979.12 -6.06858
v -5339.83 2979.12 -6.06858
v -5339.83 2979.12 0
v -5339.83 2980.62 0
v -5339.83 2980.62 -6.06858
v -5339.83 2980.62 0
v -5256.58 2980.62 38.8201
v -5256.58 2980.62 32.7515
v -5339.83 2980.62 -6.06858
v -5256.58 2980.62 38.8201
v -5256.58 2979.12 38.8201
v -5256.58 2979.12 32.7515
v -5256.58 2980.62 32.7515
v -5339.83 2979.12 -6.06858
v -5256.58 2979.12 32.7515
v -5256.58 2979.12 38.8201
v -5339.83 2979.12 0
v -5339.83 2979.12 0
v -5256.58 2979.12 38.8201
v -5256.58 2980.62 38.8201
v -5339.83 2980.62 0
# vertex indices from 381 to 404

s off
vt -122.989 -75.7078
vt -120.656 -75.7078
vt -120.656 -75.6697
vt -122.989 -75.6697
# texture vertex indices from 381 to 384

f  381/381 382/382 383/383 384/384
vt -75.6697 57.1807
vt -75.6697 57.3204
vt -75.7078 57.3204
vt -75.7078 57.1807
# texture vertex indices from 385 to 388

f  384/385 386/386 387/387 381/388
vt -122.924 57.3204
vt -120.591 57.3204
vt -120.656 57.1807
vt -122.989 57.1807
# texture vertex indices from 389 to 392

f  387/389 390/390 382/391 381/392
vt -75.7078 57.3204
vt -75.6697 57.3204
vt -75.6697 57.1807
vt -75.7078 57.1807
# texture vertex indices from 393 to 396

f  390/393 394/394 383/395 382/396
vt -122.989 57.1807
vt -120.656 57.1807
vt -120.591 57.3204
vt -122.924 57.3204
# texture vertex indices from 397 to 400

f  384/397 383/398 394/399 386/400
vt -122.924 -75.6697
vt -120.591 -75.6697
vt -120.591 -75.7078
vt -122.924 -75.7078
# texture vertex indices from 401 to 404

f  386/401 394/402 390/403 387/404

g BEAM  Paint_-_Light_Gray

usemtl Paint_-_Light_Gray

v -5339.83 3004.62 -6.06858
v -5274.58 3004.62 24.358
v -5274.58 3003.12 24.358
v -5339.83 3003.12 -6.06858
v -5339.83 3003.12 -6.06858
v -5339.83 3003.12 0
v -5339.83 3004.62 0
v -5339.83 3004.62 -6.06858
v -5339.83 3004.62 0
v -5274.58 3004.62 30.4266
v -5274.58 3004.62 24.358
v -5339.83 3004.62 -6.06858
v -5274.58 3004.62 30.4266
v -5274.58 3003.12 30.4266
v -5274.58 3003.12 24.358
v -5274.58 3004.62 24.358
v -5339.83 3003.12 -6.06858
v -5274.58 3003.12 24.358
v -5274.58 3003.12 30.4266
v -5339.83 3003.12 0
v -5339.83 3003.12 0
v -5274.58 3003.12 30.4266
v -5274.58 3004.62 30.4266
v -5339.83 3004.62 0
# vertex indices from 405 to 428

s off
vt -122.989 -76.3174
vt -121.16 -76.3174
vt -121.16 -76.2793
vt -122.989 -76.2793
# texture vertex indices from 405 to 408

f  405/405 406/406 407/407 408/408
vt -76.2793 57.1807
vt -76.2793 57.3204
vt -76.3174 57.3204
vt -76.3174 57.1807
# texture vertex indices from 409 to 412

f  408/409 410/410 411/411 405/412
vt -122.924 57.3204
vt -121.095 57.3204
vt -121.16 57.1807
vt -122.989 57.1807
# texture vertex indices from 413 to 416

f  411/413 414/414 406/415 405/416
vt -76.3174 57.3204
vt -76.2793 57.3204
vt -76.2793 57.1807
vt -76.3174 57.1807
# texture vertex indices from 417 to 420

f  414/417 418/418 407/419 406/420
vt -122.989 57.1807
vt -121.16 57.1807
vt -121.095 57.3204
vt -122.924 57.3204
# texture vertex indices from 421 to 424

f  408/421 407/422 418/423 410/424
vt -122.924 -76.2793
vt -121.095 -76.2793
vt -121.095 -76.3174
vt -122.924 -76.3174
# texture vertex indices from 425 to 428

f  410/425 418/426 414/427 411/428

g BEAM  Paint_-_Light_Gray

usemtl Paint_-_Light_Gray

v -5339.83 3028.62 -6.06858
v -5298.58 3028.62 13.1666
v -5298.58 3027.12 13.1666
v -5339.83 3027.12 -6.06858
v -5339.83 3027.12 -6.06858
v -5339.83 3027.12 0
v -5339.83 3028.62 0
v -5339.83 3028.62 -6.06858
v -5339.83 3028.62 0
v -5298.58 3028.62 19.2352
v -5298.58 3028.62 13.1666
v -5339.83 3028.62 -6.06858
v -5298.58 3028.62 19.2352
v -5298.58 3027.12 19.2352
v -5298.58 3027.12 13.1666
v -5298.58 3028.62 13.1666
v -5339.83 3027.12 -6.06858
v -5298.58 3027.12 13.1666
v -5298.58 3027.12 19.2352
v -5339.83 3027.12 0
v -5339.83 3027.12 0
v -5298.58 3027.12 19.2352
v -5298.58 3028.62 19.2352
v -5339.83 3028.62 0
# vertex indices from 429 to 452

s off
vt -122.989 -76.927
vt -121.833 -76.927
vt -121.833 -76.8889
vt -122.989 -76.8889
# texture vertex indices from 429 to 432

f  429/429 430/430 431/431 432/432
vt -76.8889 57.1807
vt -76.8889 57.3204
vt -76.927 57.3204
vt -76.927 57.1807
# texture vertex indices from 433 to 436

f  432/433 434/434 435/435 429/436
vt -122.924 57.3204
vt -121.768 57.3204
vt -121.833 57.1807
vt -122.989 57.1807
# texture vertex indices from 437 to 440

f  435/437 438/438 430/439 429/440
vt -76.927 57.3204
vt -76.8889 57.3204
vt -76.8889 57.1807
vt -76.927 57.1807
# texture vertex indices from 441 to 444

f  438/441 442/442 431/443 430/444
vt -122.989 57.1807
vt -121.833 57.1807
vt -121.768 57.3204
vt -122.924 57.3204
# texture vertex indices from 445 to 448

f  432/445 431/446 442/447 434/448
vt -122.924 -76.8889
vt -121.768 -76.8889
vt -121.768 -76.927
vt -122.924 -76.927
# texture vertex indices from 449 to 452

f  434/449 442/450 438/451 435/452

g BEAM  Paint_-_Light_Gray

usemtl Paint_-_Light_Gray

v -5339.83 2907.12 0
v -5256.58 2907.12 38.8201
v -5256.58 2908.62 38.8201
v -5339.83 2908.62 0
v -5339.83 2908.62 0
v -5339.83 2908.62 -6.06858
v -5339.83 2907.12 -6.06858
v -5339.83 2907.12 0
v -5339.83 2907.12 -6.06858
v -5256.58 2907.12 32.7515
v -5256.58 2907.12 38.8201
v -5339.83 2907.12 0
v -5256.58 2907.12 32.7515
v -5256.58 2908.62 32.7515
v -5256.58 2908.62 38.8201
v -5256.58 2907.12 38.8201
v -5339.83 2908.62 0
v -5256.58 2908.62 38.8201
v -5256.58 2908.62 32.7515
v -5339.83 2908.62 -6.06858
v -5339.83 2908.62 -6.06858
v -5256.58 2908.62 32.7515
v -5256.58 2907.12 32.7515
v -5339.83 2907.12 -6.06858
# vertex indices from 453 to 476

s off
vt -122.924 -73.8409
vt -120.591 -73.8409
vt -120.591 -73.879
vt -122.924 -73.879
# texture vertex indices from 453 to 456

f  453/453 454/454 455/455 456/456
vt -73.879 57.3204
vt -73.879 57.1807
vt -73.8409 57.1807
vt -73.8409 57.3204
# texture vertex indices from 457 to 460

f  456/457 458/458 459/459 453/460
vt -122.989 57.1807
vt -120.656 57.1807
vt -120.591 57.3204
vt -122.924 57.3204
# texture vertex indices from 461 to 464

f  459/461 462/462 454/463 453/464
vt -73.8409 57.1807
vt -73.879 57.1807
vt -73.879 57.3204
vt -73.8409 57.3204
# texture vertex indices from 465 to 468

f  462/465 466/466 455/467 454/468
vt -122.924 57.3204
vt -120.591 57.3204
vt -120.656 57.1807
vt -122.989 57.1807
# texture vertex indices from 469 to 472

f  456/469 455/470 466/471 458/472
vt -122.989 -73.879
vt -120.656 -73.879
vt -120.656 -73.8409
vt -122.989 -73.8409
# texture vertex indices from 473 to 476

f  458/473 466/474 462/475 459/476

g BEAM  Paint_-_Light_Gray

usemtl Paint_-_Light_Gray

v -5339.83 2883.12 0
v -5256.58 2883.12 38.8201
v -5256.58 2884.62 38.8201
v -5339.83 2884.62 0
v -5339.83 2884.62 0
v -5339.83 2884.62 -6.06858
v -5339.83 2883.12 -6.06858
v -5339.83 2883.12 0
v -5339.83 2883.12 -6.06858
v -5256.58 2883.12 32.7515
v -5256.58 2883.12 38.8201
v -5339.83 2883.12 0
v -5256.58 2883.12 32.7515
v -5256.58 2884.62 32.7515
v -5256.58 2884.62 38.8201
v -5256.58 2883.12 38.8201
v -5339.83 2884.62 0
v -5256.58 2884.62 38.8201
v -5256.58 2884.62 32.7515
v -5339.83 2884.62 -6.06858
v -5339.83 2884.62 -6.06858
v -5256.58 2884.62 32.7515
v -5256.58 2883.12 32.7515
v -5339.83 2883.12 -6.06858
# vertex indices from 477 to 500

s off
vt -122.924 -73.2313
vt -120.591 -73.2313
vt -120.591 -73.2694
vt -122.924 -73.2694
# texture vertex indices from 477 to 480

f  477/477 478/478 479/479 480/480
vt -73.2694 57.3204
vt -73.2694 57.1807
vt -73.2313 57.1807
vt -73.2313 57.3204
# texture vertex indices from 481 to 484

f  480/481 482/482 483/483 477/484
vt -122.989 57.1807
vt -120.656 57.1807
vt -120.591 57.3204
vt -122.924 57.3204
# texture vertex indices from 485 to 488

f  483/485 486/486 478/487 477/488
vt -73.2313 57.1807
vt -73.2694 57.1807
vt -73.2694 57.3204
vt -73.2313 57.3204
# texture vertex indices from 489 to 492

f  486/489 490/490 479/491 478/492
vt -122.924 57.3204
vt -120.591 57.3204
vt -120.656 57.1807
vt -122.989 57.1807
# texture vertex indices from 493 to 496

f  480/493 479/494 490/495 482/496
vt -122.989 -73.2694
vt -120.656 -73.2694
vt -120.656 -73.2313
vt -122.989 -73.2313
# texture vertex indices from 497 to 500

f  482/497 490/498 486/499 483/500

g BEAM  Paint_-_Light_Gray

usemtl Paint_-_Light_Gray

v -5339.83 2859.12 0
v -5256.58 2859.12 38.8201
v -5256.58 2860.62 38.8201
v -5339.83 2860.62 0
v -5339.83 2860.62 0
v -5339.83 2860.62 -6.06858
v -5339.83 2859.12 -6.06858
v -5339.83 2859.12 0
v -5339.83 2859.12 -6.06858
v -5256.58 2859.12 32.7515
v -5256.58 2859.12 38.8201
v -5339.83 2859.12 0
v -5256.58 2859.12 32.7515
v -5256.58 2860.62 32.7515
v -5256.58 2860.62 38.8201
v -5256.58 2859.12 38.8201
v -5339.83 2860.62 0
v -5256.58 2860.62 38.8201
v -5256.58 2860.62 32.7515
v -5339.83 2860.62 -6.06858
v -5339.83 2860.62 -6.06858
v -5256.58 2860.62 32.7515
v -5256.58 2859.12 32.7515
v -5339.83 2859.12 -6.06858
# vertex indices from 501 to 524

s off
vt -122.924 -72.6217
vt -120.591 -72.6217
vt -120.591 -72.6598
vt -122.924 -72.6598
# texture vertex indices from 501 to 504

f  501/501 502/502 503/503 504/504
vt -72.6598 57.3204
vt -72.6598 57.1807
vt -72.6217 57.1807
vt -72.6217 57.3204
# texture vertex indices from 505 to 508

f  504/505 506/506 507/507 501/508
vt -122.989 57.1807
vt -120.656 57.1807
vt -120.591 57.3204
vt -122.924 57.3204
# texture vertex indices from 509 to 512

f  507/509 510/510 502/511 501/512
vt -72.6217 57.1807
vt -72.6598 57.1807
vt -72.6598 57.3204
vt -72.6217 57.3204
# texture vertex indices from 513 to 516

f  510/513 514/514 503/515 502/516
vt -122.924 57.3204
vt -120.591 57.3204
vt -120.656 57.1807
vt -122.989 57.1807
# texture vertex indices from 517 to 520

f  504/517 503/518 514/519 506/520
vt -122.989 -72.6598
vt -120.656 -72.6598
vt -120.656 -72.6217
vt -122.989 -72.6217
# texture vertex indices from 521 to 524

f  506/521 514/522 510/523 507/524

g BEAM  Paint_-_Light_Gray

usemtl Paint_-_Light_Gray

v -5256.58 2985.87 39.1698
v -5256.58 2853.87 39.1698
v -5255.08 2853.87 39.1698
v -5255.08 2985.87 39.1698
v -5255.08 2985.87 39.1698
v -5255.08 2984.65 33.6698
v -5256.58 2984.65 33.6698
v -5256.58 2985.87 39.1698
v -5256.58 2984.65 33.6698
v -5256.58 2855.09 33.6698
v -5256.58 2853.87 39.1698
v -5256.58 2985.87 39.1698
v -5256.58 2855.09 33.6698
v -5255.08 2855.09 33.6698
v -5255.08 2853.87 39.1698
v -5256.58 2853.87 39.1698
v -5255.08 2985.87 39.1698
v -5255.08 2853.87 39.1698
v -5255.08 2855.09 33.6698
v -5255.08 2984.65 33.6698
v -5255.08 2984.65 33.6698
v -5255.08 2855.09 33.6698
v -5256.58 2855.09 33.6698
v -5256.58 2984.65 33.6698
# vertex indices from 525 to 548

s off
vt -75.8411 133.517
vt -72.4883 133.517
vt -72.4883 133.479
vt -75.8411 133.479
# texture vertex indices from 525 to 528

f  525/525 526/526 527/527 528/528
vt 133.479 0.994914
vt 133.479 0.855214
vt 133.517 0.855214
vt 133.517 0.994914
# texture vertex indices from 529 to 532

f  528/529 530/530 531/531 525/532
vt -75.8102 0.855214
vt -72.5193 0.855214
vt -72.4883 0.994914
vt -75.8411 0.994914
# texture vertex indices from 533 to 536

f  531/533 534/534 526/535 525/536
vt 133.517 0.855214
vt 133.479 0.855214
vt 133.479 0.994914
vt 133.517 0.994914
# texture vertex indices from 537 to 540

f  534/537 538/538 527/539 526/540
vt -75.8411 0.994914
vt -72.4883 0.994914
vt -72.5193 0.855214
vt -75.8102 0.855214
# texture vertex indices from 541 to 544

f  528/541 527/542 538/543 530/544
vt -75.8102 133.479
vt -72.5193 133.479
vt -72.5193 133.517
vt -75.8102 133.517
# texture vertex indices from 545 to 548

f  530/545 538/546 534/547 531/548

g BEAM  Paint_-_Light_Gray

usemtl Paint_-_Light_Gray

v -5233.33 2962.62 50.0115
v -5233.33 2877.12 50.0115
v -5231.83 2877.12 50.0115
v -5231.83 2962.62 50.0115
v -5231.83 2962.62 50.0115
v -5231.83 2961.4 44.5115
v -5233.33 2961.4 44.5115
v -5233.33 2962.62 50.0115
v -5233.33 2961.4 44.5115
v -5233.33 2878.34 44.5115
v -5233.33 2877.12 50.0115
v -5233.33 2962.62 50.0115
v -5233.33 2878.34 44.5115
v -5231.83 2878.34 44.5115
v -5231.83 2877.12 50.0115
v -5233.33 2877.12 50.0115
v -5231.83 2962.62 50.0115
v -5231.83 2877.12 50.0115
v -5231.83 2878.34 44.5115
v -5231.83 2961.4 44.5115
v -5231.83 2961.4 44.5115
v -5231.83 2878.34 44.5115
v -5233.33 2878.34 44.5115
v -5233.33 2961.4 44.5115
# vertex indices from 549 to 572

s off
vt -75.2506 132.926
vt -73.0789 132.926
vt -73.0789 132.888
vt -75.2506 132.888
# texture vertex indices from 549 to 552

f  549/549 550/550 551/551 552/552
vt 132.888 1.27029
vt 132.888 1.13059
vt 132.926 1.13059
vt 132.926 1.27029
# texture vertex indices from 553 to 556

f  552/553 554/554 555/555 549/556
vt -75.2196 1.13059
vt -73.1099 1.13059
vt -73.0789 1.27029
vt -75.2506 1.27029
# texture vertex indices from 557 to 560

f  555/557 558/558 550/559 549/560
vt 132.926 1.13059
vt 132.888 1.13059
vt 132.888 1.27029
vt 132.926 1.27029
# texture vertex indices from 561 to 564

f  558/561 562/562 551/563 550/564
vt -75.2506 1.27029
vt -73.0789 1.27029
vt -73.1099 1.13059
vt -75.2196 1.13059
# texture vertex indices from 565 to 568

f  552/565 551/566 562/567 554/568
vt -75.2196 132.888
vt -73.1099 132.888
vt -73.1099 132.926
vt -75.2196 132.926
# texture vertex indices from 569 to 572

f  554/569 562/570 558/571 555/572

g BEAM  Paint_-_Light_Gray

usemtl Paint_-_Light_Gray

v -5208.58 2937.87 61.5526
v -5208.58 2901.87 61.5526
v -5207.08 2901.87 61.5526
v -5207.08 2937.87 61.5526
v -5207.08 2937.87 61.5526
v -5207.08 2936.65 56.0526
v -5208.58 2936.65 56.0526
v -5208.58 2937.87 61.5526
v -5208.58 2936.65 56.0526
v -5208.58 2903.09 56.0526
v -5208.58 2901.87 61.5526
v -5208.58 2937.87 61.5526
v -5208.58 2903.09 56.0526
v -5207.08 2903.09 56.0526
v -5207.08 2901.87 61.5526
v -5208.58 2901.87 61.5526
v -5207.08 2937.87 61.5526
v -5207.08 2901.87 61.5526
v -5207.08 2903.09 56.0526
v -5207.08 2936.65 56.0526
v -5207.08 2936.65 56.0526
v -5207.08 2903.09 56.0526
v -5208.58 2903.09 56.0526
v -5208.58 2936.65 56.0526
# vertex indices from 573 to 596

s off
vt -74.6219 132.298
vt -73.7075 132.298
vt -73.7075 132.26
vt -74.6219 132.26
# texture vertex indices from 573 to 576

f  573/573 574/574 575/575 576/576
vt 132.26 1.56344
vt 132.26 1.42374
vt 132.298 1.42374
vt 132.298 1.56344
# texture vertex indices from 577 to 580

f  576/577 578/578 579/579 573/580
vt -74.591 1.42374
vt -73.7385 1.42374
vt -73.7075 1.56344
vt -74.6219 1.56344
# texture vertex indices from 581 to 584

f  579/581 582/582 574/583 573/584
vt 132.298 1.42374
vt 132.26 1.42374
vt 132.26 1.56344
vt 132.298 1.56344
# texture vertex indices from 585 to 588

f  582/585 586/586 575/587 574/588
vt -74.6219 1.56344
vt -73.7075 1.56344
vt -73.7385 1.42374
vt -74.591 1.42374
# texture vertex indices from 589 to 592

f  576/589 575/590 586/591 578/592
vt -74.591 132.26
vt -73.7385 132.26
vt -73.7385 132.298
vt -74.591 132.298
# texture vertex indices from 593 to 596

f  578/593 586/594 582/595 579/596

g BEAM  Paint_-_Light_Gray

usemtl Paint_-_Light_Gray

v -5339.83 2835.12 0
v -5274.58 2835.12 30.4266
v -5274.58 2836.62 30.4266
v -5339.83 2836.62 0
v -5339.83 2836.62 0
v -5339.83 2836.62 -6.06858
v -5339.83 2835.12 -6.06858
v -5339.83 2835.12 0
v -5339.83 2835.12 -6.06858
v -5274.58 2835.12 24.358
v -5274.58 2835.12 30.4266
v -5339.83 2835.12 0
v -5274.58 2835.12 24.358
v -5274.58 2836.62 24.358
v -5274.58 2836.62 30.4266
v -5274.58 2835.12 30.4266
v -5339.83 2836.62 0
v -5274.58 2836.62 30.4266
v -5274.58 2836.62 24.358
v -5339.83 2836.62 -6.06858
v -5339.83 2836.62 -6.06858
v -5274.58 2836.62 24.358
v -5274.58 2835.12 24.358
v -5339.83 2835.12 -6.06858
# vertex indices from 597 to 620

s off
vt -122.924 -72.0121
vt -121.095 -72.0121
vt -121.095 -72.0502
vt -122.924 -72.0502
# texture vertex indices from 597 to 600

f  597/597 598/598 599/599 600/600
vt -72.0502 57.3204
vt -72.0502 57.1807
vt -72.0121 57.1807
vt -72.0121 57.3204
# texture vertex indices from 601 to 604

f  600/601 602/602 603/603 597/604
vt -122.989 57.1807
vt -121.16 57.1807
vt -121.095 57.3204
vt -122.924 57.3204
# texture vertex indices from 605 to 608

f  603/605 606/606 598/607 597/608
vt -72.0121 57.1807
vt -72.0502 57.1807
vt -72.0502 57.3204
vt -72.0121 57.3204
# texture vertex indices from 609 to 612

f  606/609 610/610 599/611 598/612
vt -122.924 57.3204
vt -121.095 57.3204
vt -121.16 57.1807
vt -122.989 57.1807
# texture vertex indices from 613 to 616

f  600/613 599/614 610/615 602/616
vt -122.989 -72.0502
vt -121.16 -72.0502
vt -121.16 -72.0121
vt -122.989 -72.0121
# texture vertex indices from 617 to 620

f  602/617 610/618 606/619 603/620

g BEAM  Paint_-_Light_Gray

usemtl Paint_-_Light_Gray

v -5339.83 2811.12 0
v -5298.58 2811.12 19.2352
v -5298.58 2812.62 19.2352
v -5339.83 2812.62 0
v -5339.83 2812.62 0
v -5339.83 2812.62 -6.06858
v -5339.83 2811.12 -6.06858
v -5339.83 2811.12 0
v -5339.83 2811.12 -6.06858
v -5298.58 2811.12 13.1666
v -5298.58 2811.12 19.2352
v -5339.83 2811.12 0
v -5298.58 2811.12 13.1666
v -5298.58 2812.62 13.1666
v -5298.58 2812.62 19.2352
v -5298.58 2811.12 19.2352
v -5339.83 2812.62 0
v -5298.58 2812.62 19.2352
v -5298.58 2812.62 13.1666
v -5339.83 2812.62 -6.06858
v -5339.83 2812.62 -6.06858
v -5298.58 2812.62 13.1666
v -5298.58 2811.12 13.1666
v -5339.83 2811.12 -6.06858
# vertex indices from 621 to 644

s off
vt -122.924 -71.4025
vt -121.768 -71.4025
vt -121.768 -71.4406
vt -122.924 -71.4406
# texture vertex indices from 621 to 624

f  621/621 622/622 623/623 624/624
vt -71.4406 57.3204
vt -71.4406 57.1807
vt -71.4025 57.1807
vt -71.4025 57.3204
# texture vertex indices from 625 to 628

f  624/625 626/626 627/627 621/628
vt -122.989 57.1807
vt -121.833 57.1807
vt -121.768 57.3204
vt -122.924 57.3204
# texture vertex indices from 629 to 632

f  627/629 630/630 622/631 621/632
vt -71.4025 57.1807
vt -71.4406 57.1807
vt -71.4406 57.3204
vt -71.4025 57.3204
# texture vertex indices from 633 to 636

f  630/633 634/634 623/635 622/636
vt -122.924 57.3204
vt -121.768 57.3204
vt -121.833 57.1807
vt -122.989 57.1807
# texture vertex indices from 637 to 640

f  624/637 623/638 634/639 626/640
vt -122.989 -71.4406
vt -121.833 -71.4406
vt -121.833 -71.4025
vt -122.989 -71.4025
# texture vertex indices from 641 to 644

f  626/641 634/642 630/643 627/644

g BEAM  Paint_-_Light_Gray

usemtl Paint_-_Light_Gray

v -5280.58 2769.87 -6.06858
v -5280.58 2829.12 21.5602
v -5279.08 2829.12 21.5602
v -5279.08 2769.87 -6.06858
v -5279.08 2769.87 -6.06858
v -5279.08 2769.87 0
v -5280.58 2769.87 0
v -5280.58 2769.87 -6.06858
v -5280.58 2769.87 0
v -5280.58 2829.12 27.6287
v -5280.58 2829.12 21.5602
v -5280.58 2769.87 -6.06858
v -5280.58 2829.12 27.6287
v -5279.08 2829.12 27.6287
v -5279.08 2829.12 21.5602
v -5280.58 2829.12 21.5602
v -5279.08 2769.87 -6.06858
v -5279.08 2829.12 21.5602
v -5279.08 2829.12 27.6287
v -5279.08 2769.87 0
v -5279.08 2769.87 0
v -5279.08 2829.12 27.6287
v -5280.58 2829.12 27.6287
v -5280.58 2769.87 0
# vertex indices from 645 to 668

s off
vt 63.6979 -134.127
vt 65.3584 -134.127
vt 65.3584 -134.089
vt 63.6979 -134.089
# texture vertex indices from 645 to 648

f  645/645 646/646 647/647 648/648
vt -134.089 -29.8729
vt -134.089 -29.7332
vt -134.127 -29.7332
vt -134.127 -29.8729
# texture vertex indices from 649 to 652

f  648/649 650/650 651/651 645/652
vt 63.7631 -29.7332
vt 65.4236 -29.7332
vt 65.3584 -29.8729
vt 63.6979 -29.8729
# texture vertex indices from 653 to 656

f  651/653 654/654 646/655 645/656
vt -134.127 -29.7332
vt -134.089 -29.7332
vt -134.089 -29.8729
vt -134.127 -29.8729
# texture vertex indices from 657 to 660

f  654/657 658/658 647/659 646/660
vt 63.6979 -29.8729
vt 65.3584 -29.8729
vt 65.4236 -29.7332
vt 63.7631 -29.7332
# texture vertex indices from 661 to 664

f  648/661 647/662 658/663 650/664
vt 63.7631 -134.089
vt 65.4236 -134.089
vt 65.4236 -134.127
vt 63.7631 -134.127
# texture vertex indices from 665 to 668

f  650/665 658/666 654/667 651/668

g BEAM  Paint_-_Light_Gray

usemtl Paint_-_Light_Gray

v -5304.58 2769.87 -6.06858
v -5304.58 2805.12 10.3688
v -5303.08 2805.12 10.3688
v -5303.08 2769.87 -6.06858
v -5303.08 2769.87 -6.06858
v -5303.08 2769.87 0
v -5304.58 2769.87 0
v -5304.58 2769.87 -6.06858
v -5304.58 2769.87 0
v -5304.58 2805.12 16.4373
v -5304.58 2805.12 10.3688
v -5304.58 2769.87 -6.06858
v -5304.58 2805.12 16.4373
v -5303.08 2805.12 16.4373
v -5303.08 2805.12 10.3688
v -5304.58 2805.12 10.3688
v -5303.08 2769.87 -6.06858
v -5303.08 2805.12 10.3688
v -5303.08 2805.12 16.4373
v -5303.08 2769.87 0
v -5303.08 2769.87 0
v -5303.08 2805.12 16.4373
v -5304.58 2805.12 16.4373
v -5304.58 2769.87 0
# vertex indices from 669 to 692

s off
vt 63.6979 -134.736
vt 64.6858 -134.736
vt 64.6858 -134.698
vt 63.6979 -134.698
# texture vertex indices from 669 to 672

f  669/669 670/670 671/671 672/672
vt -134.698 -29.8729
vt -134.698 -29.7332
vt -134.736 -29.7332
vt -134.736 -29.8729
# texture vertex indices from 673 to 676

f  672/673 674/674 675/675 669/676
vt 63.7631 -29.7332
vt 64.751 -29.7332
vt 64.6858 -29.8729
vt 63.6979 -29.8729
# texture vertex indices from 677 to 680

f  675/677 678/678 670/679 669/680
vt -134.736 -29.7332
vt -134.698 -29.7332
vt -134.698 -29.8729
vt -134.736 -29.8729
# texture vertex indices from 681 to 684

f  678/681 682/682 671/683 670/684
vt 63.6979 -29.8729
vt 64.6858 -29.8729
vt 64.751 -29.7332
vt 63.7631 -29.7332
# texture vertex indices from 685 to 688

f  672/685 671/686 682/687 674/688
vt 63.7631 -134.698
vt 64.751 -134.698
vt 64.751 -134.736
vt 63.7631 -134.736
# texture vertex indices from 689 to 692

f  674/689 682/690 678/691 675/692

g BEAM  Paint_-_Light_Gray

usemtl Paint_-_Light_Gray

v -4979.83 2932.62 0
v -5063.08 2932.62 38.8201
v -5063.08 2931.12 38.8201
v -4979.83 2931.12 0
v -4979.83 2931.12 0
v -4979.83 2931.12 -6.06858
v -4979.83 2932.62 -6.06858
v -4979.83 2932.62 0
v -4979.83 2932.62 -6.06858
v -5063.08 2932.62 32.7515
v -5063.08 2932.62 38.8201
v -4979.83 2932.62 0
v -5063.08 2932.62 32.7515
v -5063.08 2931.12 32.7515
v -5063.08 2931.12 38.8201
v -5063.08 2932.62 38.8201
v -4979.83 2931.12 0
v -5063.08 2931.12 38.8201
v -5063.08 2931.12 32.7515
v -4979.83 2931.12 -6.06858
v -4979.83 2931.12 -6.06858
v -5063.08 2931.12 32.7515
v -5063.08 2932.62 32.7515
v -4979.83 2932.62 -6.06858
# vertex indices from 693 to 716

s off
vt 114.637 74.4886
vt 116.97 74.4886
vt 116.97 74.4505
vt 114.637 74.4505
# texture vertex indices from 693 to 696

f  693/693 694/694 695/695 696/696
vt 74.4505 -53.456
vt 74.4505 -53.5957
vt 74.4886 -53.5957
vt 74.4886 -53.456
# texture vertex indices from 697 to 700

f  696/697 698/698 699/699 693/700
vt 114.572 -53.5957
vt 116.905 -53.5957
vt 116.97 -53.456
vt 114.637 -53.456
# texture vertex indices from 701 to 704

f  699/701 702/702 694/703 693/704
vt 74.4886 -53.5957
vt 74.4505 -53.5957
vt 74.4505 -53.456
vt 74.4886 -53.456
# texture vertex indices from 705 to 708

f  702/705 706/706 695/707 694/708
vt 114.637 -53.456
vt 116.97 -53.456
vt 116.905 -53.5957
vt 114.572 -53.5957
# texture vertex indices from 709 to 712

f  696/709 695/710 706/711 698/712
vt 114.572 74.4505
vt 116.905 74.4505
vt 116.905 74.4886
vt 114.572 74.4886
# texture vertex indices from 713 to 716

f  698/713 706/714 702/715 699/716

g BEAM  Paint_-_Light_Gray

usemtl Paint_-_Light_Gray

v -5135.08 3069.87 -6.06858
v -5135.08 2919.87 63.8776
v -5136.58 2919.87 63.8776
v -5136.58 3069.87 -6.06858
v -5136.58 3069.87 -6.06858
v -5136.58 3069.87 0
v -5135.08 3069.87 0
v -5135.08 3069.87 -6.06858
v -5135.08 3069.87 0
v -5135.08 2919.87 69.9461
v -5135.08 2919.87 63.8776
v -5135.08 3069.87 -6.06858
v -5135.08 2919.87 69.9461
v -5136.58 2919.87 69.9461
v -5136.58 2919.87 63.8776
v -5135.08 2919.87 63.8776
v -5136.58 3069.87 -6.06858
v -5136.58 2919.87 63.8776
v -5136.58 2919.87 69.9461
v -5136.58 3069.87 0
v -5136.58 3069.87 0
v -5136.58 2919.87 69.9461
v -5135.08 2919.87 69.9461
v -5135.08 3069.87 0
# vertex indices from 717 to 740

s off
vt -70.7343 130.431
vt -66.5304 130.431
vt -66.5304 130.469
vt -70.7343 130.469
# texture vertex indices from 717 to 720

f  717/717 718/718 719/719 720/720
vt 130.469 32.8139
vt 130.469 32.9536
vt 130.431 32.9536
vt 130.431 32.8139
# texture vertex indices from 721 to 724

f  720/721 722/722 723/723 717/724
vt -70.6691 32.9536
vt -66.4653 32.9536
vt -66.5304 32.8139
vt -70.7343 32.8139
# texture vertex indices from 725 to 728

f  723/725 726/726 718/727 717/728
vt 130.431 32.9536
vt 130.469 32.9536
vt 130.469 32.8139
vt 130.431 32.8139
# texture vertex indices from 729 to 732

f  726/729 730/730 719/731 718/732
vt -70.7343 32.8139
vt -66.5304 32.8139
vt -66.4653 32.9536
vt -70.6691 32.9536
# texture vertex indices from 733 to 736

f  720/733 719/734 730/735 722/736
vt -70.6691 130.469
vt -66.4653 130.469
vt -66.4653 130.431
vt -70.6691 130.431
# texture vertex indices from 737 to 740

f  722/737 730/738 726/739 723/740

g BEAM  Paint_-_Light_Gray

usemtl Paint_-_Light_Gray

v -5135.08 2769.87 0
v -5135.08 2919.87 69.9461
v -5136.58 2919.87 69.9461
v -5136.58 2769.87 0
v -5136.58 2769.87 0
v -5136.58 2769.87 -6.06858
v -5135.08 2769.87 -6.06858
v -5135.08 2769.87 0
v -5135.08 2769.87 -6.06858
v -5135.08 2919.87 63.8776
v -5135.08 2919.87 69.9461
v -5135.08 2769.87 0
v -5135.08 2919.87 63.8776
v -5136.58 2919.87 63.8776
v -5136.58 2919.87 69.9461
v -5135.08 2919.87 69.9461
v -5136.58 2769.87 0
v -5136.58 2919.87 69.9461
v -5136.58 2919.87 63.8776
v -5136.58 2769.87 -6.06858
v -5136.58 2769.87 -6.06858
v -5136.58 2919.87 63.8776
v -5135.08 2919.87 63.8776
v -5135.08 2769.87 -6.06858
# vertex indices from 741 to 764

s off
vt 63.7631 -130.431
vt 67.9669 -130.431
vt 67.9669 -130.469
vt 63.7631 -130.469
# texture vertex indices from 741 to 744

f  741/741 742/742 743/743 744/744
vt -130.469 -29.7332
vt -130.469 -29.8729
vt -130.431 -29.8729
vt -130.431 -29.7332
# texture vertex indices from 745 to 748

f  744/745 746/746 747/747 741/748
vt 63.6979 -29.8729
vt 67.9018 -29.8729
vt 67.9669 -29.7332
vt 63.7631 -29.7332
# texture vertex indices from 749 to 752

f  747/749 750/750 742/751 741/752
vt -130.431 -29.8729
vt -130.469 -29.8729
vt -130.469 -29.7332
vt -130.431 -29.7332
# texture vertex indices from 753 to 756

f  750/753 754/754 743/755 742/756
vt 63.7631 -29.7332
vt 67.9669 -29.7332
vt 67.9018 -29.8729
vt 63.6979 -29.8729
# texture vertex indices from 757 to 760

f  744/757 743/758 754/759 746/760
vt 63.6979 -130.469
vt 67.9018 -130.469
vt 67.9018 -130.431
vt 63.6979 -130.431
# texture vertex indices from 761 to 764

f  746/761 754/762 750/763 747/764

g BEAM  Paint_-_Light_Gray

usemtl Paint_-_Light_Gray

v -5111.08 3069.87 -6.06858
v -5111.08 2936.65 56.0526
v -5112.58 2936.65 56.0526
v -5112.58 3069.87 -6.06858
v -5112.58 3069.87 -6.06858
v -5112.58 3069.87 0
v -5111.08 3069.87 0
v -5111.08 3069.87 -6.06858
v -5111.08 3069.87 0
v -5111.08 2937.87 61.5526
v -5111.08 2936.65 56.0526
v -5111.08 3069.87 -6.06858
v -5111.08 2937.87 61.5526
v -5112.58 2937.87 61.5526
v -5112.58 2936.65 56.0526
v -5111.08 2936.65 56.0526
v -5112.58 3069.87 -6.06858
v -5112.58 2936.65 56.0526
v -5112.58 2937.87 61.5526
v -5112.58 3069.87 0
v -5112.58 3069.87 0
v -5112.58 2937.87 61.5526
v -5111.08 2937.87 61.5526
v -5111.08 3069.87 0
# vertex indices from 765 to 788

s off
vt -70.7343 129.821
vt -67.0007 129.821
vt -67.0007 129.859
vt -70.7343 129.859
# texture vertex indices from 765 to 768

f  765/765 766/766 767/767 768/768
vt 129.859 32.8139
vt 129.859 32.9536
vt 129.821 32.9536
vt 129.821 32.8139
# texture vertex indices from 769 to 772

f  768/769 770/770 771/771 765/772
vt -70.6691 32.9536
vt -66.9697 32.9536
vt -67.0007 32.8139
vt -70.7343 32.8139
# texture vertex indices from 773 to 776

f  771/773 774/774 766/775 765/776
vt 129.821 32.9536
vt 129.859 32.9536
vt 129.859 32.8139
vt 129.821 32.8139
# texture vertex indices from 777 to 780

f  774/777 778/778 767/779 766/780
vt -70.7343 32.8139
vt -67.0007 32.8139
vt -66.9697 32.9536
vt -70.6691 32.9536
# texture vertex indices from 781 to 784

f  768/781 767/782 778/783 770/784
vt -70.6691 129.859
vt -66.9697 129.859
vt -66.9697 129.821
vt -70.6691 129.821
# texture vertex indices from 785 to 788

f  770/785 778/786 774/787 771/788

g BEAM  Paint_-_Light_Gray

usemtl Paint_-_Light_Gray

v -5111.08 2769.87 0
v -5111.08 2901.87 61.5526
v -5112.58 2901.87 61.5526
v -5112.58 2769.87 0
v -5112.58 2769.87 0
v -5112.58 2769.87 -6.06858
v -5111.08 2769.87 -6.06858
v -5111.08 2769.87 0
v -5111.08 2769.87 -6.06858
v -5111.08 2903.09 56.0526
v -5111.08 2901.87 61.5526
v -5111.08 2769.87 0
v -5111.08 2903.09 56.0526
v -5112.58 2903.09 56.0526
v -5112.58 2901.87 61.5526
v -5111.08 2901.87 61.5526
v -5112.58 2769.87 0
v -5112.58 2901.87 61.5526
v -5112.58 2903.09 56.0526
v -5112.58 2769.87 -6.06858
v -5112.58 2769.87 -6.06858
v -5112.58 2903.09 56.0526
v -5111.08 2903.09 56.0526
v -5111.08 2769.87 -6.06858
# vertex indices from 789 to 812

s off
vt 63.7631 -129.821
vt 67.4625 -129.821
vt 67.4625 -129.859
vt 63.7631 -129.859
# texture vertex indices from 789 to 792

f  789/789 790/790 791/791 792/792
vt -129.859 -29.7332
vt -129.859 -29.8729
vt -129.821 -29.8729
vt -129.821 -29.7332
# texture vertex indices from 793 to 796

f  792/793 794/794 795/795 789/796
vt 63.6979 -29.8729
vt 67.4315 -29.8729
vt 67.4625 -29.7332
vt 63.7631 -29.7332
# texture vertex indices from 797 to 800

f  795/797 798/798 790/799 789/800
vt -129.821 -29.8729
vt -129.859 -29.8729
vt -129.859 -29.7332
vt -129.821 -29.7332
# texture vertex indices from 801 to 804

f  798/801 802/802 791/803 790/804
vt 63.7631 -29.7332
vt 67.4625 -29.7332
vt 67.4315 -29.8729
vt 63.6979 -29.8729
# texture vertex indices from 805 to 808

f  792/805 791/806 802/807 794/808
vt 63.6979 -129.859
vt 67.4315 -129.859
vt 67.4315 -129.821
vt 63.6979 -129.821
# texture vertex indices from 809 to 812

f  794/809 802/810 798/811 795/812

g BEAM  Paint_-_Light_Gray

usemtl Paint_-_Light_Gray

v -5086.33 3069.87 -6.06858
v -5086.33 2961.4 44.5115
v -5087.83 2961.4 44.5115
v -5087.83 3069.87 -6.06858
v -5087.83 3069.87 -6.06858
v -5087.83 3069.87 0
v -5086.33 3069.87 0
v -5086.33 3069.87 -6.06858
v -5086.33 3069.87 0
v -5086.33 2962.62 50.0115
v -5086.33 2961.4 44.5115
v -5086.33 3069.87 -6.06858
v -5086.33 2962.62 50.0115
v -5087.83 2962.62 50.0115
v -5087.83 2961.4 44.5115
v -5086.33 2961.4 44.5115
v -5087.83 3069.87 -6.06858
v -5087.83 2961.4 44.5115
v -5087.83 2962.62 50.0115
v -5087.83 3069.87 0
v -5087.83 3069.87 0
v -5087.83 2962.62 50.0115
v -5086.33 2962.62 50.0115
v -5086.33 3069.87 0
# vertex indices from 813 to 836

s off
vt -70.7343 129.193
vt -67.6943 129.193
vt -67.6943 129.231
vt -70.7343 129.231
# texture vertex indices from 813 to 816

f  813/813 814/814 815/815 816/816
vt 129.231 32.8139
vt 129.231 32.9536
vt 129.193 32.9536
vt 129.193 32.8139
# texture vertex indices from 817 to 820

f  816/817 818/818 819/819 813/820
vt -70.6691 32.9536
vt -67.6634 32.9536
vt -67.6943 32.8139
vt -70.7343 32.8139
# texture vertex indices from 821 to 824

f  819/821 822/822 814/823 813/824
vt 129.193 32.9536
vt 129.231 32.9536
vt 129.231 32.8139
vt 129.193 32.8139
# texture vertex indices from 825 to 828

f  822/825 826/826 815/827 814/828
vt -70.7343 32.8139
vt -67.6943 32.8139
vt -67.6634 32.9536
vt -70.6691 32.9536
# texture vertex indices from 829 to 832

f  816/829 815/830 826/831 818/832
vt -70.6691 129.231
vt -67.6634 129.231
vt -67.6634 129.193
vt -70.6691 129.193
# texture vertex indices from 833 to 836

f  818/833 826/834 822/835 819/836

g BEAM  Paint_-_Light_Gray

usemtl Paint_-_Light_Gray

v -5086.33 2769.87 0
v -5086.33 2877.12 50.0115
v -5087.83 2877.12 50.0115
v -5087.83 2769.87 0
v -5087.83 2769.87 0
v -5087.83 2769.87 -6.06858
v -5086.33 2769.87 -6.06858
v -5086.33 2769.87 0
v -5086.33 2769.87 -6.06858
v -5086.33 2878.34 44.5115
v -5086.33 2877.12 50.0115
v -5086.33 2769.87 0
v -5086.33 2878.34 44.5115
v -5087.83 2878.34 44.5115
v -5087.83 2877.12 50.0115
v -5086.33 2877.12 50.0115
v -5087.83 2769.87 0
v -5087.83 2877.12 50.0115
v -5087.83 2878.34 44.5115
v -5087.83 2769.87 -6.06858
v -5087.83 2769.87 -6.06858
v -5087.83 2878.34 44.5115
v -5086.33 2878.34 44.5115
v -5086.33 2769.87 -6.06858
# vertex indices from 837 to 860

s off
vt 63.7631 -129.193
vt 66.7688 -129.193
vt 66.7688 -129.231
vt 63.7631 -129.231
# texture vertex indices from 837 to 840

f  837/837 838/838 839/839 840/840
vt -129.231 -29.7332
vt -129.231 -29.8729
vt -129.193 -29.8729
vt -129.193 -29.7332
# texture vertex indices from 841 to 844

f  840/841 842/842 843/843 837/844
vt 63.6979 -29.8729
vt 66.7379 -29.8729
vt 66.7688 -29.7332
vt 63.7631 -29.7332
# texture vertex indices from 845 to 848

f  843/845 846/846 838/847 837/848
vt -129.193 -29.8729
vt -129.231 -29.8729
vt -129.231 -29.7332
vt -129.193 -29.7332
# texture vertex indices from 849 to 852

f  846/849 850/850 839/851 838/852
vt 63.7631 -29.7332
vt 66.7688 -29.7332
vt 66.7379 -29.8729
vt 63.6979 -29.8729
# texture vertex indices from 853 to 856

f  840/853 839/854 850/855 842/856
vt 63.6979 -129.231
vt 66.7379 -129.231
vt 66.7379 -129.193
vt 63.6979 -129.193
# texture vertex indices from 857 to 860

f  842/857 850/858 846/859 843/860

g BEAM  Paint_-_Light_Gray

usemtl Paint_-_Light_Gray

v -5063.08 3069.87 -6.06858
v -5063.08 2984.65 33.6698
v -5064.58 2984.65 33.6698
v -5064.58 3069.87 -6.06858
v -5064.58 3069.87 -6.06858
v -5064.58 3069.87 0
v -5063.08 3069.87 0
v -5063.08 3069.87 -6.06858
v -5063.08 3069.87 0
v -5063.08 2985.87 39.1698
v -5063.08 2984.65 33.6698
v -5063.08 3069.87 -6.06858
v -5063.08 2985.87 39.1698
v -5064.58 2985.87 39.1698
v -5064.58 2984.65 33.6698
v -5063.08 2984.65 33.6698
v -5064.58 3069.87 -6.06858
v -5064.58 2984.65 33.6698
v -5064.58 2985.87 39.1698
v -5064.58 3069.87 0
v -5064.58 3069.87 0
v -5064.58 2985.87 39.1698
v -5063.08 2985.87 39.1698
v -5063.08 3069.87 0
# vertex indices from 861 to 884

s off
vt -70.7343 128.602
vt -68.3459 128.602
vt -68.3459 128.64
vt -70.7343 128.64
# texture vertex indices from 861 to 864

f  861/861 862/862 863/863 864/864
vt 128.64 32.8139
vt 128.64 32.9536
vt 128.602 32.9536
vt 128.602 32.8139
# texture vertex indices from 865 to 868

f  864/865 866/866 867/867 861/868
vt -70.6691 32.9536
vt -68.315 32.9536
vt -68.3459 32.8139
vt -70.7343 32.8139
# texture vertex indices from 869 to 872

f  867/869 870/870 862/871 861/872
vt 128.602 32.9536
vt 128.64 32.9536
vt 128.64 32.8139
vt 128.602 32.8139
# texture vertex indices from 873 to 876

f  870/873 874/874 863/875 862/876
vt -70.7343 32.8139
vt -68.3459 32.8139
vt -68.315 32.9536
vt -70.6691 32.9536
# texture vertex indices from 877 to 880

f  864/877 863/878 874/879 866/880
vt -70.6691 128.64
vt -68.315 128.64
vt -68.315 128.602
vt -70.6691 128.602
# texture vertex indices from 881 to 884

f  866/881 874/882 870/883 867/884

g BEAM  Paint_-_Light_Gray

usemtl Paint_-_Light_Gray

v -5063.08 2769.87 0
v -5063.08 2853.87 39.1698
v -5064.58 2853.87 39.1698
v -5064.58 2769.87 0
v -5064.58 2769.87 0
v -5064.58 2769.87 -6.06858
v -5063.08 2769.87 -6.06858
v -5063.08 2769.87 0
v -5063.08 2769.87 -6.06858
v -5063.08 2855.09 33.6698
v -5063.08 2853.87 39.1698
v -5063.08 2769.87 0
v -5063.08 2855.09 33.6698
v -5064.58 2855.09 33.6698
v -5064.58 2853.87 39.1698
v -5063.08 2853.87 39.1698
v -5064.58 2769.87 0
v -5064.58 2853.87 39.1698
v -5064.58 2855.09 33.6698
v -5064.58 2769.87 -6.06858
v -5064.58 2769.87 -6.06858
v -5064.58 2855.09 33.6698
v -5063.08 2855.09 33.6698
v -5063.08 2769.87 -6.06858
# vertex indices from 885 to 908

s off
vt 63.7631 -128.602
vt 66.1172 -128.602
vt 66.1172 -128.64
vt 63.7631 -128.64
# texture vertex indices from 885 to 888

f  885/885 886/886 887/887 888/888
vt -128.64 -29.7332
vt -128.64 -29.8729
vt -128.602 -29.8729
vt -128.602 -29.7332
# texture vertex indices from 889 to 892

f  888/889 890/890 891/891 885/892
vt 63.6979 -29.8729
vt 66.0863 -29.8729
vt 66.1172 -29.7332
vt 63.7631 -29.7332
# texture vertex indices from 893 to 896

f  891/893 894/894 886/895 885/896
vt -128.602 -29.8729
vt -128.64 -29.8729
vt -128.64 -29.7332
vt -128.602 -29.7332
# texture vertex indices from 897 to 900

f  894/897 898/898 887/899 886/900
vt 63.7631 -29.7332
vt 66.1172 -29.7332
vt 66.0863 -29.8729
vt 63.6979 -29.8729
# texture vertex indices from 901 to 904

f  888/901 887/902 898/903 890/904
vt 63.6979 -128.64
vt 66.0863 -128.64
vt 66.0863 -128.602
vt 63.6979 -128.602
# texture vertex indices from 905 to 908

f  890/905 898/906 894/907 891/908

g BEAM  Paint_-_Light_Gray

usemtl Paint_-_Light_Gray

v -5039.08 3069.87 -6.06858
v -5039.08 3010.62 21.5602
v -5040.58 3010.62 21.5602
v -5040.58 3069.87 -6.06858
v -5040.58 3069.87 -6.06858
v -5040.58 3069.87 0
v -5039.08 3069.87 0
v -5039.08 3069.87 -6.06858
v -5039.08 3069.87 0
v -5039.08 3010.62 27.6287
v -5039.08 3010.62 21.5602
v -5039.08 3069.87 -6.06858
v -5039.08 3010.62 27.6287
v -5040.58 3010.62 27.6287
v -5040.58 3010.62 21.5602
v -5039.08 3010.62 21.5602
v -5040.58 3069.87 -6.06858
v -5040.58 3010.62 21.5602
v -5040.58 3010.62 27.6287
v -5040.58 3069.87 0
v -5040.58 3069.87 0
v -5040.58 3010.62 27.6287
v -5039.08 3010.62 27.6287
v -5039.08 3069.87 0
# vertex indices from 909 to 932

s off
vt -70.7343 127.993
vt -69.0737 127.993
vt -69.0737 128.031
vt -70.7343 128.031
# texture vertex indices from 909 to 912

f  909/909 910/910 911/911 912/912
vt 128.031 32.8139
vt 128.031 32.9536
vt 127.993 32.9536
vt 127.993 32.8139
# texture vertex indices from 913 to 916

f  912/913 914/914 915/915 909/916
vt -70.6691 32.9536
vt -69.0086 32.9536
vt -69.0737 32.8139
vt -70.7343 32.8139
# texture vertex indices from 917 to 920

f  915/917 918/918 910/919 909/920
vt 127.993 32.9536
vt 128.031 32.9536
vt 128.031 32.8139
vt 127.993 32.8139
# texture vertex indices from 921 to 924

f  918/921 922/922 911/923 910/924
vt -70.7343 32.8139
vt -69.0737 32.8139
vt -69.0086 32.9536
vt -70.6691 32.9536
# texture vertex indices from 925 to 928

f  912/925 911/926 922/927 914/928
vt -70.6691 128.031
vt -69.0086 128.031
vt -69.0086 127.993
vt -70.6691 127.993
# texture vertex indices from 929 to 932

f  914/929 922/930 918/931 915/932

g BEAM  Paint_-_Light_Gray

usemtl Paint_-_Light_Gray

v -5015.08 3069.87 -6.06858
v -5015.08 3034.62 10.3688
v -5016.58 3034.62 10.3688
v -5016.58 3069.87 -6.06858
v -5016.58 3069.87 -6.06858
v -5016.58 3069.87 0
v -5015.08 3069.87 0
v -5015.08 3069.87 -6.06858
v -5015.08 3069.87 0
v -5015.08 3034.62 16.4373
v -5015.08 3034.62 10.3688
v -5015.08 3069.87 -6.06858
v -5015.08 3034.62 16.4373
v -5016.58 3034.62 16.4373
v -5016.58 3034.62 10.3688
v -5015.08 3034.62 10.3688
v -5016.58 3069.87 -6.06858
v -5016.58 3034.62 10.3688
v -5016.58 3034.62 16.4373
v -5016.58 3069.87 0
v -5016.58 3069.87 0
v -5016.58 3034.62 16.4373
v -5015.08 3034.62 16.4373
v -5015.08 3069.87 0
# vertex indices from 933 to 956

s off
vt -70.7343 127.383
vt -69.7464 127.383
vt -69.7464 127.421
vt -70.7343 127.421
# texture vertex indices from 933 to 936

f  933/933 934/934 935/935 936/936
vt 127.421 32.8139
vt 127.421 32.9536
vt 127.383 32.9536
vt 127.383 32.8139
# texture vertex indices from 937 to 940

f  936/937 938/938 939/939 933/940
vt -70.6691 32.9536
vt -69.6812 32.9536
vt -69.7464 32.8139
vt -70.7343 32.8139
# texture vertex indices from 941 to 944

f  939/941 942/942 934/943 933/944
vt 127.383 32.9536
vt 127.421 32.9536
vt 127.421 32.8139
vt 127.383 32.8139
# texture vertex indices from 945 to 948

f  942/945 946/946 935/947 934/948
vt -70.7343 32.8139
vt -69.7464 32.8139
vt -69.6812 32.9536
vt -70.6691 32.9536
# texture vertex indices from 949 to 952

f  936/949 935/950 946/951 938/952
vt -70.6691 127.421
vt -69.6812 127.421
vt -69.6812 127.383
vt -70.6691 127.383
# texture vertex indices from 953 to 956

f  938/953 946/954 942/955 939/956

g BEAM  Paint_-_Light_Gray

usemtl Paint_-_Light_Gray

v -4979.83 2956.62 0
v -5063.08 2956.62 38.8201
v -5063.08 2955.12 38.8201
v -4979.83 2955.12 0
v -4979.83 2955.12 0
v -4979.83 2955.12 -6.06858
v -4979.83 2956.62 -6.06858
v -4979.83 2956.62 0
v -4979.83 2956.62 -6.06858
v -5063.08 2956.62 32.7515
v -5063.08 2956.62 38.8201
v -4979.83 2956.62 0
v -5063.08 2956.62 32.7515
v -5063.08 2955.12 32.7515
v -5063.08 2955.12 38.8201
v -5063.08 2956.62 38.8201
v -4979.83 2955.12 0
v -5063.08 2955.12 38.8201
v -5063.08 2955.12 32.7515
v -4979.83 2955.12 -6.06858
v -4979.83 2955.12 -6.06858
v -5063.08 2955.12 32.7515
v -5063.08 2956.62 32.7515
v -4979.83 2956.62 -6.06858
# vertex indices from 957 to 980

s off
vt 114.637 75.0982
vt 116.97 75.0982
vt 116.97 75.0601
vt 114.637 75.0601
# texture vertex indices from 957 to 960

f  957/957 958/958 959/959 960/960
vt 75.0601 -53.456
vt 75.0601 -53.5957
vt 75.0982 -53.5957
vt 75.0982 -53.456
# texture vertex indices from 961 to 964

f  960/961 962/962 963/963 957/964
vt 114.572 -53.5957
vt 116.905 -53.5957
vt 116.97 -53.456
vt 114.637 -53.456
# texture vertex indices from 965 to 968

f  963/965 966/966 958/967 957/968
vt 75.0982 -53.5957
vt 75.0601 -53.5957
vt 75.0601 -53.456
vt 75.0982 -53.456
# texture vertex indices from 969 to 972

f  966/969 970/970 959/971 958/972
vt 114.637 -53.456
vt 116.97 -53.456
vt 116.905 -53.5957
vt 114.572 -53.5957
# texture vertex indices from 973 to 976

f  960/973 959/974 970/975 962/976
vt 114.572 75.0601
vt 116.905 75.0601
vt 116.905 75.0982
vt 114.572 75.0982
# texture vertex indices from 977 to 980

f  962/977 970/978 966/979 963/980

g BEAM  Paint_-_Light_Gray

usemtl Paint_-_Light_Gray

v -4979.83 2980.62 0
v -5063.08 2980.62 38.8201
v -5063.08 2979.12 38.8201
v -4979.83 2979.12 0
v -4979.83 2979.12 0
v -4979.83 2979.12 -6.06858
v -4979.83 2980.62 -6.06858
v -4979.83 2980.62 0
v -4979.83 2980.62 -6.06858
v -5063.08 2980.62 32.7515
v -5063.08 2980.62 38.8201
v -4979.83 2980.62 0
v -5063.08 2980.62 32.7515
v -5063.08 2979.12 32.7515
v -5063.08 2979.12 38.8201
v -5063.08 2980.62 38.8201
v -4979.83 2979.12 0
v -5063.08 2979.12 38.8201
v -5063.08 2979.12 32.7515
v -4979.83 2979.12 -6.06858
v -4979.83 2979.12 -6.06858
v -5063.08 2979.12 32.7515
v -5063.08 2980.62 32.7515
v -4979.83 2980.62 -6.06858
# vertex indices from 981 to 1004

s off
vt 114.637 75.7078
vt 116.97 75.7078
vt 116.97 75.6697
vt 114.637 75.6697
# texture vertex indices from 981 to 984

f  981/981 982/982 983/983 984/984
vt 75.6697 -53.456
vt 75.6697 -53.5957
vt 75.7078 -53.5957
vt 75.7078 -53.456
# texture vertex indices from 985 to 988

f  984/985 986/986 987/987 981/988
vt 114.572 -53.5957
vt 116.905 -53.5957
vt 116.97 -53.456
vt 114.637 -53.456
# texture vertex indices from 989 to 992

f  987/989 990/990 982/991 981/992
vt 75.7078 -53.5957
vt 75.6697 -53.5957
vt 75.6697 -53.456
vt 75.7078 -53.456
# texture vertex indices from 993 to 996

f  990/993 994/994 983/995 982/996
vt 114.637 -53.456
vt 116.97 -53.456
vt 116.905 -53.5957
vt 114.572 -53.5957
# texture vertex indices from 997 to 1000

f  984/997 983/998 994/999 986/1000
vt 114.572 75.6697
vt 116.905 75.6697
vt 116.905 75.7078
vt 114.572 75.7078
# texture vertex indices from 1001 to 1004

f  986/1001 994/1002 990/1003 987/1004

g BEAM  Paint_-_Light_Gray

usemtl Paint_-_Light_Gray

v -4979.83 3004.62 0
v -5045.08 3004.62 30.4266
v -5045.08 3003.12 30.4266
v -4979.83 3003.12 0
v -4979.83 3003.12 0
v -4979.83 3003.12 -6.06858
v -4979.83 3004.62 -6.06858
v -4979.83 3004.62 0
v -4979.83 3004.62 -6.06858
v -5045.08 3004.62 24.358
v -5045.08 3004.62 30.4266
v -4979.83 3004.62 0
v -5045.08 3004.62 24.358
v -5045.08 3003.12 24.358
v -5045.08 3003.12 30.4266
v -5045.08 3004.62 30.4266
v -4979.83 3003.12 0
v -5045.08 3003.12 30.4266
v -5045.08 3003.12 24.358
v -4979.83 3003.12 -6.06858
v -4979.83 3003.12 -6.06858
v -5045.08 3003.12 24.358
v -5045.08 3004.62 24.358
v -4979.83 3004.62 -6.06858
# vertex indices from 1005 to 1028

s off
vt 114.637 76.3174
vt 116.465 76.3174
vt 116.465 76.2793
vt 114.637 76.2793
# texture vertex indices from 1005 to 1008

f  1005/1005 1006/1006 1007/1007 1008/1008
vt 76.2793 -53.456
vt 76.2793 -53.5957
vt 76.3174 -53.5957
vt 76.3174 -53.456
# texture vertex indices from 1009 to 1012

f  1008/1009 1010/1010 1011/1011 1005/1012
vt 114.572 -53.5957
vt 116.4 -53.5957
vt 116.465 -53.456
vt 114.637 -53.456
# texture vertex indices from 1013 to 1016

f  1011/1013 1014/1014 1006/1015 1005/1016
vt 76.3174 -53.5957
vt 76.2793 -53.5957
vt 76.2793 -53.456
vt 76.3174 -53.456
# texture vertex indices from 1017 to 1020

f  1014/1017 1018/1018 1007/1019 1006/1020
vt 114.637 -53.456
vt 116.465 -53.456
vt 116.4 -53.5957
vt 114.572 -53.5957
# texture vertex indices from 1021 to 1024

f  1008/1021 1007/1022 1018/1023 1010/1024
vt 114.572 76.2793
vt 116.4 76.2793
vt 116.4 76.3174
vt 114.572 76.3174
# texture vertex indices from 1025 to 1028

f  1010/1025 1018/1026 1014/1027 1011/1028

g BEAM  Paint_-_Light_Gray

usemtl Paint_-_Light_Gray

v -4979.83 3028.62 0
v -5021.08 3028.62 19.2352
v -5021.08 3027.12 19.2352
v -4979.83 3027.12 0
v -4979.83 3027.12 0
v -4979.83 3027.12 -6.06858
v -4979.83 3028.62 -6.06858
v -4979.83 3028.62 0
v -4979.83 3028.62 -6.06858
v -5021.08 3028.62 13.1666
v -5021.08 3028.62 19.2352
v -4979.83 3028.62 0
v -5021.08 3028.62 13.1666
v -5021.08 3027.12 13.1666
v -5021.08 3027.12 19.2352
v -5021.08 3028.62 19.2352
v -4979.83 3027.12 0
v -5021.08 3027.12 19.2352
v -5021.08 3027.12 13.1666
v -4979.83 3027.12 -6.06858
v -4979.83 3027.12 -6.06858
v -5021.08 3027.12 13.1666
v -5021.08 3028.62 13.1666
v -4979.83 3028.62 -6.06858
# vertex indices from 1029 to 1052

s off
vt 114.637 76.927
vt 115.793 76.927
vt 115.793 76.8889
vt 114.637 76.8889
# texture vertex indices from 1029 to 1032

f  1029/1029 1030/1030 1031/1031 1032/1032
vt 76.8889 -53.456
vt 76.8889 -53.5957
vt 76.927 -53.5957
vt 76.927 -53.456
# texture vertex indices from 1033 to 1036

f  1032/1033 1034/1034 1035/1035 1029/1036
vt 114.572 -53.5957
vt 115.728 -53.5957
vt 115.793 -53.456
vt 114.637 -53.456
# texture vertex indices from 1037 to 1040

f  1035/1037 1038/1038 1030/1039 1029/1040
vt 76.927 -53.5957
vt 76.8889 -53.5957
vt 76.8889 -53.456
vt 76.927 -53.456
# texture vertex indices from 1041 to 1044

f  1038/1041 1042/1042 1031/1043 1030/1044
vt 114.637 -53.456
vt 115.793 -53.456
vt 115.728 -53.5957
vt 114.572 -53.5957
# texture vertex indices from 1045 to 1048

f  1032/1045 1031/1046 1042/1047 1034/1048
vt 114.572 76.8889
vt 115.728 76.8889
vt 115.728 76.927
vt 114.572 76.927
# texture vertex indices from 1049 to 1052

f  1034/1049 1042/1050 1038/1051 1035/1052

g BEAM  Paint_-_Light_Gray

usemtl Paint_-_Light_Gray

v -4979.83 2907.12 -6.06858
v -5063.08 2907.12 32.7515
v -5063.08 2908.62 32.7515
v -4979.83 2908.62 -6.06858
v -4979.83 2908.62 -6.06858
v -4979.83 2908.62 0
v -4979.83 2907.12 0
v -4979.83 2907.12 -6.06858
v -4979.83 2907.12 0
v -5063.08 2907.12 38.8201
v -5063.08 2907.12 32.7515
v -4979.83 2907.12 -6.06858
v -5063.08 2907.12 38.8201
v -5063.08 2908.62 38.8201
v -5063.08 2908.62 32.7515
v -5063.08 2907.12 32.7515
v -4979.83 2908.62 -6.06858
v -5063.08 2908.62 32.7515
v -5063.08 2908.62 38.8201
v -4979.83 2908.62 0
v -4979.83 2908.62 0
v -5063.08 2908.62 38.8201
v -5063.08 2907.12 38.8201
v -4979.83 2907.12 0
# vertex indices from 1053 to 1076

s off
vt 114.572 73.8409
vt 116.905 73.8409
vt 116.905 73.879
vt 114.572 73.879
# texture vertex indices from 1053 to 1056

f  1053/1053 1054/1054 1055/1055 1056/1056
vt 73.879 -53.5957
vt 73.879 -53.456
vt 73.8409 -53.456
vt 73.8409 -53.5957
# texture vertex indices from 1057 to 1060

f  1056/1057 1058/1058 1059/1059 1053/1060
vt 114.637 -53.456
vt 116.97 -53.456
vt 116.905 -53.5957
vt 114.572 -53.5957
# texture vertex indices from 1061 to 1064

f  1059/1061 1062/1062 1054/1063 1053/1064
vt 73.8409 -53.456
vt 73.879 -53.456
vt 73.879 -53.5957
vt 73.8409 -53.5957
# texture vertex indices from 1065 to 1068

f  1062/1065 1066/1066 1055/1067 1054/1068
vt 114.572 -53.5957
vt 116.905 -53.5957
vt 116.97 -53.456
vt 114.637 -53.456
# texture vertex indices from 1069 to 1072

f  1056/1069 1055/1070 1066/1071 1058/1072
vt 114.637 73.879
vt 116.97 73.879
vt 116.97 73.8409
vt 114.637 73.8409
# texture vertex indices from 1073 to 1076

f  1058/1073 1066/1074 1062/1075 1059/1076

g BEAM  Paint_-_Light_Gray

usemtl Paint_-_Light_Gray

v -4979.83 2883.12 -6.06858
v -5063.08 2883.12 32.7515
v -5063.08 2884.62 32.7515
v -4979.83 2884.62 -6.06858
v -4979.83 2884.62 -6.06858
v -4979.83 2884.62 0
v -4979.83 2883.12 0
v -4979.83 2883.12 -6.06858
v -4979.83 2883.12 0
v -5063.08 2883.12 38.8201
v -5063.08 2883.12 32.7515
v -4979.83 2883.12 -6.06858
v -5063.08 2883.12 38.8201
v -5063.08 2884.62 38.8201
v -5063.08 2884.62 32.7515
v -5063.08 2883.12 32.7515
v -4979.83 2884.62 -6.06858
v -5063.08 2884.62 32.7515
v -5063.08 2884.62 38.8201
v -4979.83 2884.62 0
v -4979.83 2884.62 0
v -5063.08 2884.62 38.8201
v -5063.08 2883.12 38.8201
v -4979.83 2883.12 0
# vertex indices from 1077 to 1100

s off
vt 114.572 73.2313
vt 116.905 73.2313
vt 116.905 73.2694
vt 114.572 73.2694
# texture vertex indices from 1077 to 1080

f  1077/1077 1078/1078 1079/1079 1080/1080
vt 73.2694 -53.5957
vt 73.2694 -53.456
vt 73.2313 -53.456
vt 73.2313 -53.5957
# texture vertex indices from 1081 to 1084

f  1080/1081 1082/1082 1083/1083 1077/1084
vt 114.637 -53.456
vt 116.97 -53.456
vt 116.905 -53.5957
vt 114.572 -53.5957
# texture vertex indices from 1085 to 1088

f  1083/1085 1086/1086 1078/1087 1077/1088
vt 73.2313 -53.456
vt 73.2694 -53.456
vt 73.2694 -53.5957
vt 73.2313 -53.5957
# texture vertex indices from 1089 to 1092

f  1086/1089 1090/1090 1079/1091 1078/1092
vt 114.572 -53.5957
vt 116.905 -53.5957
vt 116.97 -53.456
vt 114.637 -53.456
# texture vertex indices from 1093 to 1096

f  1080/1093 1079/1094 1090/1095 1082/1096
vt 114.637 73.2694
vt 116.97 73.2694
vt 116.97 73.2313
vt 114.637 73.2313
# texture vertex indices from 1097 to 1100

f  1082/1097 1090/1098 1086/1099 1083/1100

g BEAM  Paint_-_Light_Gray

usemtl Paint_-_Light_Gray

v -4979.83 2859.12 -6.06858
v -5063.08 2859.12 32.7515
v -5063.08 2860.62 32.7515
v -4979.83 2860.62 -6.06858
v -4979.83 2860.62 -6.06858
v -4979.83 2860.62 0
v -4979.83 2859.12 0
v -4979.83 2859.12 -6.06858
v -4979.83 2859.12 0
v -5063.08 2859.12 38.8201
v -5063.08 2859.12 32.7515
v -4979.83 2859.12 -6.06858
v -5063.08 2859.12 38.8201
v -5063.08 2860.62 38.8201
v -5063.08 2860.62 32.7515
v -5063.08 2859.12 32.7515
v -4979.83 2860.62 -6.06858
v -5063.08 2860.62 32.7515
v -5063.08 2860.62 38.8201
v -4979.83 2860.62 0
v -4979.83 2860.62 0
v -5063.08 2860.62 38.8201
v -5063.08 2859.12 38.8201
v -4979.83 2859.12 0
# vertex indices from 1101 to 1124

s off
vt 114.572 72.6217
vt 116.905 72.6217
vt 116.905 72.6598
vt 114.572 72.6598
# texture vertex indices from 1101 to 1104

f  1101/1101 1102/1102 1103/1103 1104/1104
vt 72.6598 -53.5957
vt 72.6598 -53.456
vt 72.6217 -53.456
vt 72.6217 -53.5957
# texture vertex indices from 1105 to 1108

f  1104/1105 1106/1106 1107/1107 1101/1108
vt 114.637 -53.456
vt 116.97 -53.456
vt 116.905 -53.5957
vt 114.572 -53.5957
# texture vertex indices from 1109 to 1112

f  1107/1109 1110/1110 1102/1111 1101/1112
vt 72.6217 -53.456
vt 72.6598 -53.456
vt 72.6598 -53.5957
vt 72.6217 -53.5957
# texture vertex indices from 1113 to 1116

f  1110/1113 1114/1114 1103/1115 1102/1116
vt 114.572 -53.5957
vt 116.905 -53.5957
vt 116.97 -53.456
vt 114.637 -53.456
# texture vertex indices from 1117 to 1120

f  1104/1117 1103/1118 1114/1119 1106/1120
vt 114.637 72.6598
vt 116.97 72.6598
vt 116.97 72.6217
vt 114.637 72.6217
# texture vertex indices from 1121 to 1124

f  1106/1121 1114/1122 1110/1123 1107/1124

g BEAM  Paint_-_Light_Gray

usemtl Paint_-_Light_Gray

v -5063.08 2984.65 33.6698
v -5063.08 2855.09 33.6698
v -5064.58 2855.09 33.6698
v -5064.58 2984.65 33.6698
v -5064.58 2984.65 33.6698
v -5064.58 2985.87 39.1698
v -5063.08 2985.87 39.1698
v -5063.08 2984.65 33.6698
v -5063.08 2985.87 39.1698
v -5063.08 2853.87 39.1698
v -5063.08 2855.09 33.6698
v -5063.08 2984.65 33.6698
v -5063.08 2853.87 39.1698
v -5064.58 2853.87 39.1698
v -5064.58 2855.09 33.6698
v -5063.08 2855.09 33.6698
v -5064.58 2984.65 33.6698
v -5064.58 2855.09 33.6698
v -5064.58 2853.87 39.1698
v -5064.58 2985.87 39.1698
v -5064.58 2985.87 39.1698
v -5064.58 2853.87 39.1698
v -5063.08 2853.87 39.1698
v -5063.08 2985.87 39.1698
# vertex indices from 1125 to 1148

s off
vt -75.8102 128.602
vt -72.5193 128.602
vt -72.5193 128.64
vt -75.8102 128.64
# texture vertex indices from 1125 to 1128

f  1125/1125 1126/1126 1127/1127 1128/1128
vt 128.64 0.855214
vt 128.64 0.994914
vt 128.602 0.994914
vt 128.602 0.855214
# texture vertex indices from 1129 to 1132

f  1128/1129 1130/1130 1131/1131 1125/1132
vt -75.8411 0.994914
vt -72.4883 0.994914
vt -72.5193 0.855214
vt -75.8102 0.855214
# texture vertex indices from 1133 to 1136

f  1131/1133 1134/1134 1126/1135 1125/1136
vt 128.602 0.994914
vt 128.64 0.994914
vt 128.64 0.855214
vt 128.602 0.855214
# texture vertex indices from 1137 to 1140

f  1134/1137 1138/1138 1127/1139 1126/1140
vt -75.8102 0.855214
vt -72.5193 0.855214
vt -72.4883 0.994914
vt -75.8411 0.994914
# texture vertex indices from 1141 to 1144

f  1128/1141 1127/1142 1138/1143 1130/1144
vt -75.8411 128.64
vt -72.4883 128.64
vt -72.4883 128.602
vt -75.8411 128.602
# texture vertex indices from 1145 to 1148

f  1130/1145 1138/1146 1134/1147 1131/1148

g BEAM  Paint_-_Light_Gray

usemtl Paint_-_Light_Gray

v -5086.33 2961.4 44.5115
v -5086.33 2878.34 44.5115
v -5087.83 2878.34 44.5115
v -5087.83 2961.4 44.5115
v -5087.83 2961.4 44.5115
v -5087.83 2962.62 50.0115
v -5086.33 2962.62 50.0115
v -5086.33 2961.4 44.5115
v -5086.33 2962.62 50.0115
v -5086.33 2877.12 50.0115
v -5086.33 2878.34 44.5115
v -5086.33 2961.4 44.5115
v -5086.33 2877.12 50.0115
v -5087.83 2877.12 50.0115
v -5087.83 2878.34 44.5115
v -5086.33 2878.34 44.5115
v -5087.83 2961.4 44.5115
v -5087.83 2878.34 44.5115
v -5087.83 2877.12 50.0115
v -5087.83 2962.62 50.0115
v -5087.83 2962.62 50.0115
v -5087.83 2877.12 50.0115
v -5086.33 2877.12 50.0115
v -5086.33 2962.62 50.0115
# vertex indices from 1149 to 1172

s off
vt -75.2196 129.193
vt -73.1099 129.193
vt -73.1099 129.231
vt -75.2196 129.231
# texture vertex indices from 1149 to 1152

f  1149/1149 1150/1150 1151/1151 1152/1152
vt 129.231 1.13059
vt 129.231 1.27029
vt 129.193 1.27029
vt 129.193 1.13059
# texture vertex indices from 1153 to 1156

f  1152/1153 1154/1154 1155/1155 1149/1156
vt -75.2506 1.27029
vt -73.0789 1.27029
vt -73.1099 1.13059
vt -75.2196 1.13059
# texture vertex indices from 1157 to 1160

f  1155/1157 1158/1158 1150/1159 1149/1160
vt 129.193 1.27029
vt 129.231 1.27029
vt 129.231 1.13059
vt 129.193 1.13059
# texture vertex indices from 1161 to 1164

f  1158/1161 1162/1162 1151/1163 1150/1164
vt -75.2196 1.13059
vt -73.1099 1.13059
vt -73.0789 1.27029
vt -75.2506 1.27029
# texture vertex indices from 1165 to 1168

f  1152/1165 1151/1166 1162/1167 1154/1168
vt -75.2506 129.231
vt -73.0789 129.231
vt -73.0789 129.193
vt -75.2506 129.193
# texture vertex indices from 1169 to 1172

f  1154/1169 1162/1170 1158/1171 1155/1172

g BEAM  Paint_-_Light_Gray

usemtl Paint_-_Light_Gray

v -5111.08 2936.65 56.0526
v -5111.08 2903.09 56.0526
v -5112.58 2903.09 56.0526
v -5112.58 2936.65 56.0526
v -5112.58 2936.65 56.0526
v -5112.58 2937.87 61.5526
v -5111.08 2937.87 61.5526
v -5111.08 2936.65 56.0526
v -5111.08 2937.87 61.5526
v -5111.08 2901.87 61.5526
v -5111.08 2903.09 56.0526
v -5111.08 2936.65 56.0526
v -5111.08 2901.87 61.5526
v -5112.58 2901.87 61.5526
v -5112.58 2903.09 56.0526
v -5111.08 2903.09 56.0526
v -5112.58 2936.65 56.0526
v -5112.58 2903.09 56.0526
v -5112.58 2901.87 61.5526
v -5112.58 2937.87 61.5526
v -5112.58 2937.87 61.5526
v -5112.58 2901.87 61.5526
v -5111.08 2901.87 61.5526
v -5111.08 2937.87 61.5526
# vertex indices from 1173 to 1196

s off
vt -74.591 129.821
vt -73.7385 129.821
vt -73.7385 129.859
vt -74.591 129.859
# texture vertex indices from 1173 to 1176

f  1173/1173 1174/1174 1175/1175 1176/1176
vt 129.859 1.42374
vt 129.859 1.56344
vt 129.821 1.56344
vt 129.821 1.42374
# texture vertex indices from 1177 to 1180

f  1176/1177 1178/1178 1179/1179 1173/1180
vt -74.6219 1.56344
vt -73.7075 1.56344
vt -73.7385 1.42374
vt -74.591 1.42374
# texture vertex indices from 1181 to 1184

f  1179/1181 1182/1182 1174/1183 1173/1184
vt 129.821 1.56344
vt 129.859 1.56344
vt 129.859 1.42374
vt 129.821 1.42374
# texture vertex indices from 1185 to 1188

f  1182/1185 1186/1186 1175/1187 1174/1188
vt -74.591 1.42374
vt -73.7385 1.42374
vt -73.7075 1.56344
vt -74.6219 1.56344
# texture vertex indices from 1189 to 1192

f  1176/1189 1175/1190 1186/1191 1178/1192
vt -74.6219 129.859
vt -73.7075 129.859
vt -73.7075 129.821
vt -74.6219 129.821
# texture vertex indices from 1193 to 1196

f  1178/1193 1186/1194 1182/1195 1179/1196

g BEAM  Paint_-_Light_Gray

usemtl Paint_-_Light_Gray

v -4979.83 2835.12 -6.06858
v -5045.08 2835.12 24.358
v -5045.08 2836.62 24.358
v -4979.83 2836.62 -6.06858
v -4979.83 2836.62 -6.06858
v -4979.83 2836.62 0
v -4979.83 2835.12 0
v -4979.83 2835.12 -6.06858
v -4979.83 2835.12 0
v -5045.08 2835.12 30.4266
v -5045.08 2835.12 24.358
v -4979.83 2835.12 -6.06858
v -5045.08 2835.12 30.4266
v -5045.08 2836.62 30.4266
v -5045.08 2836.62 24.358
v -5045.08 2835.12 24.358
v -4979.83 2836.62 -6.06858
v -5045.08 2836.62 24.358
v -5045.08 2836.62 30.4266
v -4979.83 2836.62 0
v -4979.83 2836.62 0
v -5045.08 2836.62 30.4266
v -5045.08 2835.12 30.4266
v -4979.83 2835.12 0
# vertex indices from 1197 to 1220

s off
vt 114.572 72.0121
vt 116.4 72.0121
vt 116.4 72.0502
vt 114.572 72.0502
# texture vertex indices from 1197 to 1200

f  1197/1197 1198/1198 1199/1199 1200/1200
vt 72.0502 -53.5957
vt 72.0502 -53.456
vt 72.0121 -53.456
vt 72.0121 -53.5957
# texture vertex indices from 1201 to 1204

f  1200/1201 1202/1202 1203/1203 1197/1204
vt 114.637 -53.456
vt 116.465 -53.456
vt 116.4 -53.5957
vt 114.572 -53.5957
# texture vertex indices from 1205 to 1208

f  1203/1205 1206/1206 1198/1207 1197/1208
vt 72.0121 -53.456
vt 72.0502 -53.456
vt 72.0502 -53.5957
vt 72.0121 -53.5957
# texture vertex indices from 1209 to 1212

f  1206/1209 1210/1210 1199/1211 1198/1212
vt 114.572 -53.5957
vt 116.4 -53.5957
vt 116.465 -53.456
vt 114.637 -53.456
# texture vertex indices from 1213 to 1216

f  1200/1213 1199/1214 1210/1215 1202/1216
vt 114.637 72.0502
vt 116.465 72.0502
vt 116.465 72.0121
vt 114.637 72.0121
# texture vertex indices from 1217 to 1220

f  1202/1217 1210/1218 1206/1219 1203/1220

g BEAM  Paint_-_Light_Gray

usemtl Paint_-_Light_Gray

v -4979.83 2811.12 -6.06858
v -5021.08 2811.12 13.1666
v -5021.08 2812.62 13.1666
v -4979.83 2812.62 -6.06858
v -4979.83 2812.62 -6.06858
v -4979.83 2812.62 0
v -4979.83 2811.12 0
v -4979.83 2811.12 -6.06858
v -4979.83 2811.12 0
v -5021.08 2811.12 19.2352
v -5021.08 2811.12 13.1666
v -4979.83 2811.12 -6.06858
v -5021.08 2811.12 19.2352
v -5021.08 2812.62 19.2352
v -5021.08 2812.62 13.1666
v -5021.08 2811.12 13.1666
v -4979.83 2812.62 -6.06858
v -5021.08 2812.62 13.1666
v -5021.08 2812.62 19.2352
v -4979.83 2812.62 0
v -4979.83 2812.62 0
v -5021.08 2812.62 19.2352
v -5021.08 2811.12 19.2352
v -4979.83 2811.12 0
# vertex indices from 1221 to 1244

s off
vt 114.572 71.4025
vt 115.728 71.4025
vt 115.728 71.4406
vt 114.572 71.4406
# texture vertex indices from 1221 to 1224

f  1221/1221 1222/1222 1223/1223 1224/1224
vt 71.4406 -53.5957
vt 71.4406 -53.456
vt 71.4025 -53.456
vt 71.4025 -53.5957
# texture vertex indices from 1225 to 1228

f  1224/1225 1226/1226 1227/1227 1221/1228
vt 114.637 -53.456
vt 115.793 -53.456
vt 115.728 -53.5957
vt 114.572 -53.5957
# texture vertex indices from 1229 to 1232

f  1227/1229 1230/1230 1222/1231 1221/1232
vt 71.4025 -53.456
vt 71.4406 -53.456
vt 71.4406 -53.5957
vt 71.4025 -53.5957
# texture vertex indices from 1233 to 1236

f  1230/1233 1234/1234 1223/1235 1222/1236
vt 114.572 -53.5957
vt 115.728 -53.5957
vt 115.793 -53.456
vt 114.637 -53.456
# texture vertex indices from 1237 to 1240

f  1224/1237 1223/1238 1234/1239 1226/1240
vt 114.637 71.4406
vt 115.793 71.4406
vt 115.793 71.4025
vt 114.637 71.4025
# texture vertex indices from 1241 to 1244

f  1226/1241 1234/1242 1230/1243 1227/1244

g BEAM  Paint_-_Light_Gray

usemtl Paint_-_Light_Gray

v -5039.08 2769.87 0
v -5039.08 2829.12 27.6287
v -5040.58 2829.12 27.6287
v -5040.58 2769.87 0
v -5040.58 2769.87 0
v -5040.58 2769.87 -6.06858
v -5039.08 2769.87 -6.06858
v -5039.08 2769.87 0
v -5039.08 2769.87 -6.06858
v -5039.08 2829.12 21.5602
v -5039.08 2829.12 27.6287
v -5039.08 2769.87 0
v -5039.08 2829.12 21.5602
v -5040.58 2829.12 21.5602
v -5040.58 2829.12 27.6287
v -5039.08 2829.12 27.6287
v -5040.58 2769.87 0
v -5040.58 2829.12 27.6287
v -5040.58 2829.12 21.5602
v -5040.58 2769.87 -6.06858
v -5040.58 2769.87 -6.06858
v -5040.58 2829.12 21.5602
v -5039.08 2829.12 21.5602
v -5039.08 2769.87 -6.06858
# vertex indices from 1245 to 1268

s off
vt 63.7631 -127.993
vt 65.4236 -127.993
vt 65.4236 -128.031
vt 63.7631 -128.031
# texture vertex indices from 1245 to 1248

f  1245/1245 1246/1246 1247/1247 1248/1248
vt -128.031 -29.7332
vt -128.031 -29.8729
vt -127.993 -29.8729
vt -127.993 -29.7332
# texture vertex indices from 1249 to 1252

f  1248/1249 1250/1250 1251/1251 1245/1252
vt 63.6979 -29.8729
vt 65.3584 -29.8729
vt 65.4236 -29.7332
vt 63.7631 -29.7332
# texture vertex indices from 1253 to 1256

f  1251/1253 1254/1254 1246/1255 1245/1256
vt -127.993 -29.8729
vt -128.031 -29.8729
vt -128.031 -29.7332
vt -127.993 -29.7332
# texture vertex indices from 1257 to 1260

f  1254/1257 1258/1258 1247/1259 1246/1260
vt 63.7631 -29.7332
vt 65.4236 -29.7332
vt 65.3584 -29.8729
vt 63.6979 -29.8729
# texture vertex indices from 1261 to 1264

f  1248/1261 1247/1262 1258/1263 1250/1264
vt 63.6979 -128.031
vt 65.3584 -128.031
vt 65.3584 -127.993
vt 63.6979 -127.993
# texture vertex indices from 1265 to 1268

f  1250/1265 1258/1266 1254/1267 1251/1268

g BEAM  Paint_-_Light_Gray

usemtl Paint_-_Light_Gray

v -5015.08 2769.87 0
v -5015.08 2805.12 16.4373
v -5016.58 2805.12 16.4373
v -5016.58 2769.87 0
v -5016.58 2769.87 0
v -5016.58 2769.87 -6.06858
v -5015.08 2769.87 -6.06858
v -5015.08 2769.87 0
v -5015.08 2769.87 -6.06858
v -5015.08 2805.12 10.3688
v -5015.08 2805.12 16.4373
v -5015.08 2769.87 0
v -5015.08 2805.12 10.3688
v -5016.58 2805.12 10.3688
v -5016.58 2805.12 16.4373
v -5015.08 2805.12 16.4373
v -5016.58 2769.87 0
v -5016.58 2805.12 16.4373
v -5016.58 2805.12 10.3688
v -5016.58 2769.87 -6.06858
v -5016.58 2769.87 -6.06858
v -5016.58 2805.12 10.3688
v -5015.08 2805.12 10.3688
v -5015.08 2769.87 -6.06858
# vertex indices from 1269 to 1292

s off
vt 63.7631 -127.383
vt 64.751 -127.383
vt 64.751 -127.421
vt 63.7631 -127.421
# texture vertex indices from 1269 to 1272

f  1269/1269 1270/1270 1271/1271 1272/1272
vt -127.421 -29.7332
vt -127.421 -29.8729
vt -127.383 -29.8729
vt -127.383 -29.7332
# texture vertex indices from 1273 to 1276

f  1272/1273 1274/1274 1275/1275 1269/1276
vt 63.6979 -29.8729
vt 64.6858 -29.8729
vt 64.751 -29.7332
vt 63.7631 -29.7332
# texture vertex indices from 1277 to 1280

f  1275/1277 1278/1278 1270/1279 1269/1280
vt -127.383 -29.8729
vt -127.421 -29.8729
vt -127.421 -29.7332
vt -127.383 -29.7332
# texture vertex indices from 1281 to 1284

f  1278/1281 1282/1282 1271/1283 1270/1284
vt 63.7631 -29.7332
vt 64.751 -29.7332
vt 64.6858 -29.8729
vt 63.6979 -29.8729
# texture vertex indices from 1285 to 1288

f  1272/1285 1271/1286 1282/1287 1274/1288
vt 63.6979 -127.421
vt 64.6858 -127.421
vt 64.6858 -127.383
vt 63.6979 -127.383
# texture vertex indices from 1289 to 1292

f  1274/1289 1282/1290 1278/1291 1275/1292
